<mxfile host="app.diagrams.net" agent="Mozilla/5.0 (Windows NT 10.0; Win64; x64) AppleWebKit/537.36 (KHTML, like Gecko) Chrome/137.0.0.0 Safari/537.36" version="27.1.6">
  <diagram name="Page-1" id="JT_GBlxRe_CDcP6DP31Z">
    <mxGraphModel dx="1002" dy="553" grid="1" gridSize="10" guides="1" tooltips="1" connect="1" arrows="1" fold="1" page="1" pageScale="1" pageWidth="850" pageHeight="1100" math="0" shadow="0">
      <root>
        <mxCell id="0" />
        <mxCell id="1" parent="0" />
        <mxCell id="R-P3G-_Bv4H8eyaSP3HX-10" value="" style="rounded=1;whiteSpace=wrap;html=1;fillColor=none;container=0;" vertex="1" parent="1">
          <mxGeometry x="440" y="270" width="340" height="160" as="geometry" />
        </mxCell>
        <mxCell id="R-P3G-_Bv4H8eyaSP3HX-11" value="Server" style="text;html=1;align=center;verticalAlign=middle;resizable=0;points=[];autosize=1;strokeColor=none;fillColor=none;fontStyle=1;container=0;" vertex="1" parent="1">
          <mxGeometry x="580" y="240" width="60" height="30" as="geometry" />
        </mxCell>
        <mxCell id="R-P3G-_Bv4H8eyaSP3HX-26" value="" style="group" vertex="1" connectable="0" parent="1">
          <mxGeometry x="450" y="300" width="180" height="120" as="geometry" />
        </mxCell>
        <mxCell id="R-P3G-_Bv4H8eyaSP3HX-24" value="" style="rounded=1;whiteSpace=wrap;html=1;fillColor=none;strokeColor=default;dashed=1;dashPattern=8 8;" vertex="1" parent="R-P3G-_Bv4H8eyaSP3HX-26">
          <mxGeometry width="180" height="120" as="geometry" />
        </mxCell>
        <mxCell id="R-P3G-_Bv4H8eyaSP3HX-9" value="Express" style="shape=image;verticalLabelPosition=bottom;labelBackgroundColor=default;verticalAlign=top;aspect=fixed;imageAspect=0;image=data:image/png,iVBORw0KGgoAAAANSUhEUgAAAyAAAAMgCAMAAADsrvZaAAAAtFBMVEUAAAAyMjIyMjIyMjIyMjIyMjIyMjIyMjIyMjIyMjIyMjIyMjIyMjIyMjIyMjIyMjIyMjIyMjIyMjIyMjIyMjIyMjIyMjIyMjIyMjIyMjIyMjIyMjIyMjIyMjIyMjIyMjIyMjIyMjIyMjIyMjIyMjIyMjIyMjIyMjIyMjIyMjIyMjIyMjL///9lZWXNzc3z8/M/Pz+ZmZna2tpZWVl/f3/m5uZMTEyzs7NycnKlpaWMjIy/v78kwZpOAAAAK3RSTlMA+wOd8TbtpdU8976KBv1zJLYRHTDczXrhxpfnkE9UZhaDDGtZrClCCEheKRFu+gAAKJdJREFUeNrs3euSmjAYgGEOQhRwo6LIGVFZtpP7v7+eZtrutOtYVyWB9/nJ/8x3TLAAAAAAAAAAAAAAAAAAaGt5WHl93cg2yt1uHWbJbrfzvwvUN4H/3bdPSRauOzePWtnUvbc6LC1grJaxVzX7UoTzdKZuNEvnoSj3TeXFHBaMghMvall2WaHurMi6UtaL2LEAAx23tczD1FYPZqdhLuvt0QKM4KyqvZsV6smKzN1XK+IJ9PX9aIgkUAMKEsExgX6Oi5ObBEoTQeKeFiRd0MKml2JuK+3YcyH7jQUMZumdxE5pbSdOHi1hPF9cR5k2OdVlQRbVsQU8y6pxU2WY1G1WFvBorydRKEMV4vRqAY+yajpfGc7viCR4gE2da16PX2+X17S3cD/Oos00bOR+hp21C+aJuIPNWRifV/2bL84EEnzKqwxHFjres0NJ2Y5bE6tyNFXHJbuSZAv/y+lzY7u5/6/Ie84Irrb84o607PiY735hJQVXWFZipiZpJirOCC5y+unFjvdxhFwLH/LKCdUdHylKzwL+Eu/nCj/M9yz/4p23c/ii8MtLeH6zgJ+8fKJl+SWznFQL3xwkqdUH5vJgYdr6btSrJJ9ld72FydoQPK4JI2w0TpPnGnKnfGiBSzUyOW9NonC1pKGpNSVxO+l5+S38ltnIVHiCwvwGtiDTmgCnzhRulNVsao3bURr3oJVeUsmbv+N1aJmYf5rfMj0cpxVt3fsISur18dlSmd+PLbYWxsRbs6x7Vy9rWlrjsQgV7i5cWBiDnuPxICGbjOYjevyJKAKOxyUcEfy2XSs83JqOlpleOzpXT/HS8b6veWKXucfT2C6jQ7NsIqbmTxVE3Ds0x1Kyc/V0M8m7pYaoJvHXAv2kZwv687jvMZiEyaHuYkHrakgdv9DV2bGlNh+YHXGjSltnHmfXQEEpoqctayWaCJmt62eTMxjUhp0zFdGL0/DQlVb8hvdPNOLxTKJ2Eq4c6uJYkl1pyC7pZ2mh4qkrTaWVhaHFnYK21mz5DsthLVFvM0mxPqAtxbn2EoYiQ1m2FOcGsFv24Afh8f80Q8zp+D7fW0T4MIYd8YOqr+zdCVLiQBgG0GZRERERYXAUt9HCgdz/frOUZamQICShKt3v3aEr6X/5+sBOfT4apScd6JB+z219NMxw7iNyMBOfjwbqKWcdRnvm9tFIrZmeyAGM7Jw31k8LubV70DpvsO5DoE6P0nYb7tILhzVaWjpvvNtloB7nA8XdCAwHRk9qMTKZGIkf7uo1eHE7j0Z3FajWr05GRDrWcSs1kUcdmam+eoVWEkWj09cS8XuF36z6jYwmRqqnmlWBe9WraHXvA+W0NQdjNhwY8C3lUWJ75M7MZpUwEZoYvWv13r29qO4moO/BHdcPXESqNrb6kYxL7+3sbGG4JCHTRWAnS92PpHStUe3kWXBJYlrPge9q32Qk58ZV3fUcV3XDiRherNGp5JJkHYu43upe9zxhfeO9ylcUGCpmFRpkJG4QyHN+kpG8E7lyOcaWP/jrTLl3oyvlXf7rXQXWLCxH8eba7OKaifYH726tGX5xanqXD7pahp8stQf5pG/+/YMX7UG+aFlVf/fgfLBmKLz3zSyDDWYB5wMnpNBTBjmeQvKMJ2J0Md88gwLzkDTpDGxxE9LV9nQUW3XSTTtxPviGTkiU/yv8Zbmf46auvstXqr36gxTRMTRfQhFTJ84HeZyQMp4z2FFCkXIrjw+ys+EqJOLOfhR7aN2FJLw6H+yl9RoScCS/hD11j0L0RscZ7Ok4+id2ruQnUsJ15KmkY/m7lNKLOtn6XH47JZ3F/DqC9z8o7SREywAvRnsNmLCZoRMNdHJpqW9xJMCdivQjbBhqEKJhmG88zaAy08jaIRogZJl2iAQsCknL2uwig4pdhGgo8PKPYu9mCxsgf9i7t51EoiAKwwXhjDQgiCIe2tYLtN7//eZikknMiDQmvfcq9/+9xD7Uqip0YPBLtqnzgYV/+Mr6T3/tQCfWv2HwOwlFfEJu8ZM3RvygM1X4ZepbEljo0GxrodW0oKNTd7UF1idhgo7NIz/UeaDjKzzU/3rkgY7OVWEr6isq6EhgELQ55LhzIIHd0SIi4o5vFR59/3AgkYCrQ6gQ4pyS64UNQ3iR0KSxWHiA4IyinyFvDiQVKrZIBQTnlVsNWVABQXK7OIOAiGChrRJDWe9EsJBB9W4h1AcHMjjE6A1hSAMyWVsAzw5k8mzy+OHFRQr76+3vHchmr96Ae+tARrcmbcuYamTVk871HsnwIrOJcnvhgwOZPZisKRcsZFdNTRQXLCiQvWSRUYQE0dTikAsWJPSGJmjBBQsiJoqtIS8OiHgxOZQIoUOvXNinyxZCdmqZrKUDQpYmZUPIHVIGG1NCFyHESHUXPjogRmivTsOqTsi50xnXS4gXgmRivWRMoEglcUIJBJpEiiGvDkh6NQHXIwckjRRGLbIqB7IE1uoMmVQNWVX+dzqD4iBsbz/CsmcU4sOyalh1AGmHxn6COQ0oxJVltJk5IG22sXzGDogb20X44kVZLvvq5YsXpdlbJk8OBPBkWSxuHAjgZmGXYJAJCrO01kjxojyja2uLGiEKdGXJ1dQIEcasttTuHQjj3hJbMagBgfRW1gIhE5RqbEltCZkglGprLTCLF6VaW0JTB4KZWjpzB4KZ22kcIMDUTuIFAqztFA4Q4PQRwgECpDtChg78Ye9edNMIYiiAOpQS0oQ2Iu8nIQqByv//f41UtVJbhgrYXYnZc35iNPa1fZBOYh0PCGx4Qjwg8NPn+JcHBDY8IVJYsDmRJcYL5VCvORD431yIe1Kw9uaUSXToaDp9nnDQ5tGi12HCQRu+xhqWKULraxYHtwkH7nYQf7HOHcrL3t0DgS7uhVwmVOCPyKImIXTSLHyRMqEKRy/xmyYhdNIsXDmYQyVGq2jeLKESs2jedUIlruMXo+hQqvSq8UI3ld6pQRAq8mUaH+R4oZtM7zihIuNo1DKhKsto0iKhKov4IIYFpUCWLzqUffNFh7KxLjp00k2/T6jOvaA7lA1X0Yy3hAq9OZkDrZ/TuXAyhyp9vYgm3CRU6UYTBMrG1sXBBpexv7OESp3Z6A6tbno/SajWiZgJtBg3mYiZULHRJPbzlFCxp9jPcULFjmMvE2dtqdpwEvv4nlC1JwtHoeyTGhaUjSb2xUHZUpcQWukVDh4SKvcwkMOCNvJYjwnVe4xdXSVU7yp29J7QA+9WVkPza6xPE3rgNHYydRSEXjia2jgKZW9GQaDhoZCBoCI9MRpoo0OzzfR5Qk/MY3t3CT1xp8gLjRZ6nxN649msFJTdS/JCg4ne84QeOY/tzBJ6ZBbbWST0yCK2I2dCr4wME8IP9u4gBYEgBgLgKIjoRXEPLigoriCS///PF0QGdm6p+kVIujMsVrgElLI4dYdRQ4jGOIq52YLAH2dbEMg9vAWBMbnbOaCYuXWbAsqZZEEg99bqDrm7ODoMCKZvjwHlbF6tzy6goINLRcidXCpCbq+vAVY3N1wCSnq2Hp+Akr5eE0Luakb/sXfnunEDMQBADbtI4MpIYSOFm6RIQc59aEb6//8KElhjzK4oUVrrMKxXG1yQI2pN7nU63fqpwu9wOn1JrCn91/m17qev6sf5y1KnE+3P+Tr66UT7fZCP28ZkOhmwsLIxQsPn8j8JhYWUuRVwFOuX2CWTpUSsKmBE/CzxhzzcTXuGdcW2UzgoNAk+i9QEHGTzukloIcTuJY4+W6SozriDxyc97/1e99haHMU4QIGFhdtY7LXDjyGHs2gUjlBzr0J8AyOcN+V2ukaJ+WK2WNAlOGz8MY/3u34llmhwWmg1jDNYZLhFxl4HldEGEZKRhNHANd0g7uIZYfUS07S3yBOMPmD8KU93U15hLU4ij5pKvcMiwXIJe0FDjW4QIflJ8Ew0SMwBL6xcYpo2CvmU0QeLP+31bsoLrEM3yBfSeKyAPRVhqahKEAcVukFih2yqBZbRBhm8oa5bYlqrcB7lDxWf4WWPN5osyV1GGOE+Ygyx2PNQqxtkeRbWAQPdINoEHLJmiWnO4nxSHyY+y7d9llhRXmfWmCTeeNOFeTcHf/sYkrHXQIVsEC2xZjvjRa81ncVLBhioBvEKh61eYrrkNdkZIwpjZMBLShwkPs/zLkuspLBiWweXdGoUVhoNtAYLAUsk7FkNFapBnKpyMAIGkshh3h2ObhBhkbJ6iemCFyGnCNe0MBZr/hDxmR7vd1himTrzNgIhdfUhayBpiz2lYS56AKEbxFcblAgUl0voEp5EN0jGK1Zm849crcS0BpGZ//Wi2R8gPtvT5kusOncpYExsuBeXU+8xYS56ACEbxGMRPIzzgXl+ZIM4ixWbvdu6xPQDJJhS7/r87vH5XrdeYmmL74KAKU4yjy9hYWCuTIwwZIP4ecspozjnRzZI/Q+T9HGfEheG/QDDl3DaOv5yL5u+E6s+PGWAwyve8eXlY0gilmBkg3jsdRo4YsfoEKpBfDUnxL1KXIiZa4errZqKG8df7mHjbx21WFhuFloia8BYPIZERVSWapBU/j4Bl1cTHUI2iK/aY7cSF1ot2xk5iz27cfzlfm77++jNsnWsYY2ReukYYonnZqpBoppxAQ7OEX/ZO9cdKGEgCqvxboxREzVqvERj1KFQKFBY3v+9NN4mGA+05RRr4vd7d1hm55SetrROIGuBrPXRmfNSjJnjJnb++Gy7ZI9P4uapW/60SWPu6yLxAjFJNgQaECiQTrtXMdgusA+gAlnfevv3U/yVEazIicpAY7PHJ/HoxG15J9DRDcA1IY1Dm2BDsAFBAmm1jiLxG5cCAnGaM1NCikV86hVWi4J89vgkbmwK5L0wAHMNUbigLy/xNmRs0FeAQNyBv8Djh9WfBWIH9RNlpFiaI2NFqvcxe3wO788b5a1B/sMwIa2vHaJtSIceOkgg9REfWKOrAYEsOgVfSIonfSUghRa1EPz4HJ6eNsp7ObgYpA/pAbhYGzLDzwOBTIn9Y+0l7wVQgWjJ+mJSPB9qorUJa7LHJ7A7zntPaIzN0YlOH9J96uNsyISfOEAgg7bQKbhmT5AqEH281eWkuAuSbMAfNGWPT+HeWec/L8ftUxcSwu/YkFADAgTSHx1G7Hd7ySqQ/tfAazkpPlx/A7gCPz6FZ5trea8KC5M2dhfvwGwXaEN2DAgQyKCRE1mCa1DqnykrJ8WjPt6SUJfQZI9P4eq1cw5Ir7US02lDmkjXBNuQOcTWrARijg+R2AbX4Fog7qfhLijFJmGuGkhgzB6fwuNTdlU0nMGFIeTmJ2RD8AeXwJ9fexVeMpc9mf/K1Q9DUVKK9VmaTAeMEj8+hTtXMJ+FRc2Z4ZyCetlzmA0Zm9A+ibZrhJvYl/mvX/+93otKsdGHcyozCMGPT+HzGdMghrBGJqIKkA1BZsWF/H6lZWUD+1SlKyvFhALuwX/Dj09geyLkuVDQoaVB4kkoAxtiQzwwIPiyhCYa1SAWiCkrxYQCdmSB4PgUnl/BPBQOI2+R5RDUsJr9AuvB2jwcjzdHO/1hvgIIxBeWYhP3uzbvL3t8Cg9P2NLkwltj2Yd1i9q99t41O6u7sUBGSSBG5quLFZZigolGBcyPT+HJFcwL4TDw1sfYwHZ82bYhtttZtYQFsshxLpv1Xym+tBRbwiwD2FOYH5/CC6yP+8LBMUemfZh5tcOmDfFxb/gb8pYAdrNDVCljcSkmXAgUMD8+h/vZ5wlb5ouQU2AGHbAhwQYECcQKAY8eb2uBdOWluD7odXAB8+NzeJz9damO+h5kaEveAxsSakCAQBZhMCG5rQXSl5fiWUfLKOD4pXAj76ZY9Ln/JbTt96CogQHBqEBYJbi9Jk8vZstL8cRdLYvjF3N6Et4a67VQ6LlbTVwCmxj8Dr+P3kDJAFeQzoKNsAqkKzDFFiw/YKHxSzmD73XuiXTPfMcrxo+65o9z5X38jIYKZBAOF1zSKpC2xBQv7Ne+cfwywFPpL4XCoF6ZQhPY/IMjcVQ2nYRiSBZEcXiwXgViSkyx5mIWDjh+EbzMfDaI1VLgUIe2r388VM12CfvvGdSop9PgmlYLUmSK68wVXBemkFuZX7g17N3u2ojG/HcbEmVAFBWIERILqkEVyFBmig04LyEdHL8EH4Jfur0tDFpucxDnSO3ahsQZEMWARj0dvLuWCqQuNMUzPDQrHRz/r/Mk80qThb0pvYnpUJi1DVEDUiddshESeNGRCqQtNcVdpcxWGOD4f/0hgteaXBcGHbtzIlGteas2JH1vSqOyIqG+Ad/fpdQU265SmnkUAqz4fO5mXoqlhcAizg8sakPEJ3oJw7eNWoP4/opN8bcKVpZJCJDi8/kIBPJGGIz0zonUEQW0XraYOhhl8Pf4d6HVWW6Krf/9CEEjBBjx+TzOej6h9rVp1HHDUK5SEn+MybD+YdkVyFhyii/VbzS+H4UAIT6ZD1nXKk7qAFj4yOa8r5S0VQxGG3UaLbgLFUjZKXZ/OLR9WC6EDBHiE8H7mnwSAqAOzg3pqzVOoihdIH8pxbYFh/nPkxUChPgcPgGBvBIGbcUnriDU86UuyFWBCI9pVyDFp3j0FWDwFych8OPzeZ9xMW8ZAhHXHHtnli8QvD3BPyQQLeE/0vn9DhE/Pp93QCAPhEFdZaOVYKYUA6LwBYKttQrkn0ix1WP8UzpEfz3+Lng571s5TikCaasDZwT/F8g2bh62o3S4iEuIv8dbIJAv7F3NztMwEBQCCQRcOCABd05p4rhOnL/3fy8ECBmXDHG2s3QtOtev3yRZ79iZ2F6/J3A/vvV+IAhqFSY8BXKIkPp5gG6NzQ6M8P8V7xXrKppovTRXKJsOfwqkBP28HCTxdeibW9jhx/iiuB1EtfWGpghpTk443fcfC2Q4+1B+AlkM1lUZ498BPoXtK4U9LVp4ENKkrNSG1CKQtrGBMPsOuoapN89/i9eKlXkttF4yIEIb8hSIAH3rO7fby/sq+H/DB70NhRZaLxkQN4tsyFMgYoR1czvdU6iF/zvwlsLPBG7iZh75DSTr4UU2xPpE4cND/Fe0/g/X4IaK+Jvm8z/Zceubx2DNRo1OZEOSQIgecLC8FouLuN7msK+J/w0QyMf7aG20Xsh9R3QCG/IfLlakIy4u99IV8X9UOSTdRuv1482Qcc6GPAXCQ++zFB7q4f+kKpAZelF95AbkJxZR2R962Et2FNYR4nLk69fbavg/qdZsaB/ZeuvteCEqHPeoLbdVhPgUYvf7UY+18L9SFQjeMK2PsDPxISg9+qiiDTWE+CzW3CZUwa8hENjc+gAGBAwrJVAp+xNTXFDEKgjxeQSXvQTVwI8E8oJBjos26WMDdmOTH38wNizMaBhL+V5BiAW4qd1XAT8qjEWi3/BGVz6gAYEjSxHaC7uTxuVvk0Dsh1iE4LLaABXwawoEFKHVAjIg+E8FUCle3R0XrzYfYiHWvOOyz68rkPkBh84dDRP+pA1p2SewgSM4coFYD7EYXX6/5vl1BRLZhdHxvFi50ejO2ZCW/mkEH+KUBGI9xGLM+TuQeX5dgTQjeZINTyCUf6rq3Skb0oJ3MjnwMYBJIOZCnG6MlBKrOj8B6gLZuJ1vfxzGgoOe57KUTwIhd9Id9OgpT8yFmJbAS7pfZX4C1AUyMOexSs7PKTroeTmwIUggc8NAjz1NyhNzIe5Iby5pcYw6PwNvlQUSmblVdqLrVLBm7Xoi51v2/OyALUgSiLkQd6yr9EnQyvwM4IlCEkZmbvXuOIpDSTqHAxsCBDI2DHSYLQnEXIg3oXfHj6jOzwBeakLCwlw+NoBnxwYEM2EbAgTC+jIS89c70LrmQuzlxVtBB6HGX5VAAm2xOHa32IBgbMU2pCVvxVmA2nKBmAtxsjqsS9D4qxZIM7JeT3AmYAOC0Y/YhgCBcDrp3oGA5AIxF+IgH0VBAqvzM4A3TLHgeR5yQmmKDQhGKK2U1XL3qnk0cuUCsRdi+RoOkMA0/roFEmnrKyNOfmxAMDy0IUAglE66d+gbVp4m9kLciUMAPiEq8usL5GNDw8bqfSewaBAYkEN0yIYAgVAewsNkzgViL8SechH8iHx+Bj5qlf3h76cIqMMvNyCoM7/Mh/dPeojo4CXz1rUX4iAdp9Aopc7PwBuVwnGgp/YEGpT92IBgzEU2pL0Qh5ANp3IuEIMhHhlWB8908/kZ+AxLj/LQUqYRhqPUCu70OVJLsiHHt39193/ImqHObgViMMSeMU6lcX5T52fgHSxeTURHWA4b3UFq9VdBklyRDdmrGzLdHfge1IzYEYjBEEdO7cJfV1nV+Rn4AI8/ICJkaShDd9S9TJJ9TXHXhgCBxPRL+UNgE5wLxHaIQyPGgDj4/Ay8hgfoMLHc/Qbvj1JrkB1kO+zZECCQpku/FGEB97gnEIMhbuIFf0XHABO0ozo/BS+VjmADdy3RNU5/uQFJmPZsCBBIe7b5oBgRQRKIvRBnwdoaGfA8KZ+fgi9qh3gCE+mC5N9BaskMCEqsFFIgkGa650V/QF/CdgViLsQ3H8anexMhqvNT8B4eA82Fv6f5wqFTWOSFFcJlhxwIJDr5WV/DBXWPuwIxF+Jv7N1Lb9QwEABgH6h4CYEEooe2FAQHqpn4Eb/y+P//C1UEed31bBw3Lq663z2T9Tjj9VTbmHh3YeltfPX4+/jB0j7CzniYvgG2GcTaIj885qt5SrQhRIGAKt4kK8Ssa3HRWooXvPwJpv8Np378cpcs7RZ2Ji0WrvJm9XhBV9KABDwRnygQ6MuO+pIzZq7vuGgsxYlNEM4SttHh4ql6/J38ZGnfYG+6bOjSI649/kUNSCATyydVIE6UHPWlbfar+XHRWIrjbOQvEsT+aa4efy+/WNod7E6LgoPkOkstvbs0IPRrGYgCgeFgFhxkkWrDT1Vw0VaKD5jC084cJzeZ9eOXu2NpF7A/LTDgHaxzM1KTRzQgZUa6DYkLJJ5AoSSsMza/PkKBNJXiiMED1kAWqaLbVI+/m7cs7RNUoAVumT/tkRw10YCU6hN7cKJAwETzJ4EWyiN/WcdFSyl+wCDxCJfepn78cl9Y2neowfV4qDcSKNJwDMhvzbgBKeboNiQUSHIChddAcsrixqnDRUspfshgxI4aTtBT/JGsrh5/R59Z2geoQnqMzZOGY53iGPMS0sZ9fuFmEm0IVSBgRDwjfnCpQYw9xriEVbhoKMXHtMWYHYfk1d3k7VES/n/8DX4zwiuowwh8iI9q6P5Rau4x/3D4IUSBR/GJNoQqENBHH1FEg5iiQWyqYFy0k+IUOeMRy5XqDlLgucVjqon42d4xyhVU4jhuxR0ZTOz1vhFpqTYkFEggR9yKa8iBi2ZSTBgEFuh1K/EzXTHKG6hmsLiFHYDU73e4jcZkGxIXSKA5bmEN5MFFMykmlKwRwjQUP89XRnkPFRm7w5NFNCDFJqINCQUS6zjmsgpy4aKVFJ/gPG5hJ9lW/BzvGeU1VJQ9f3wAEtGAlJvTbQh9Ern2mKM3kA8XjaT4NKksZppNg/HXvWaUa6hMe4Gn9ZMDGtWAlJMi2YbEBRKTZkYa/TdKGi7aSPG6zltcNU+u1fgrrhnlEurrFEeC9cZBG0KBJElDTqGYJw0bPcMU62kWSLFcdY3HP+WSUW7haXRGcX4wfsG5mjoJ7QgFQpLdNHKOQc+9Gpqp8CdIsetUnAHk3CvTyWcSn3LLKDdw9lcokLMX54ZRLuDs3rlAXrQLRvkMZ/fOBfKHfTu4QRgKYiBqQCAhxAGQSEiuOcX998engF0K8Lwe5mQ52kuVu/FDINHuKq3GQCDJVtXexkAgyd6qPYyBQJI9VFuMgUCSLapNxkAgySbVdmMgkGS7aldjIJBkV4mlsEcgyV6qHQ+GTSDBDkc1ZsMmkGCzOjfDJpBgN3VOhk0gwU4SQ8gfBBJsUmczbAIJtmngMtUikGBndZ6GTSDBnmpdDBNIrot6H+PL3t3upA4FURheFENBbTQEDgiKB+UjJ3P/93cahSpt7W6pv/a8zz1M0u6ZWWMUiF9PEu+8IRSIX6nEO28IBeLXQh+IxmpCgfi1UbODwSgQvw5qljHPa0aBuDXIFDA2UCBujRWyN1Agbu0VsjVQIG5tFbIxUCBubSSesYIoELcOCkluDRSIU7eJPpHP24QC8eqPckxjhVAgXg0V9m6AU+86IV0RqDoq7I1hE3g1VY5hE6DWXG2kBri0VxsPBri0UBtHA1z6pxOif4Cqv2plboBDc4m/dOAnqXL00oF6DyoQ0AuUTfSBiXegxuBNZ+SPAmVPauvZAHeedcJeOlC10wXOpQNfKgfSuQYNfLNUjlYhEGoThr0a4Myr2ns0wJmDOlgb4Mpa4icECGwTMq8IBBN/SOgFLs1Uwr10oDDSBe7oAJVfEDohQEMXhE4IUO9RBZIbgJK5uloZ4MZKJ+yEAFUbdTUl5B1uDKYqsJgOhNfROZgOnG1VwqUp4MtE3SVMm8CJUaJPjLwDVamusTPAhZ1yPPQCgUfebu4McOBOFRwrBGrOHrBWCPyYZ8JELxCe5CXlHaikutNMB+pMdK2E/DhEb53ojK0poGyl6x0NiNxR18sYWETkRpl6GBoQtaH6eDEgai/qI7sxIGI3mQoshQAlqcQ3FtD4hcU7FtD4hkWvEGjqEjKPBVRN1FeyNCBSy0S93RsQqXv1NzMgUjP9grEBURrrNywM+M/eveimDQRRGD4EDOISE3BCRUkJISVCmfd/v0qlFxGwBZGNZ3f/7yVGOzN7JkrfVIciNyBCeaFazAyI0EwnyCAF/vqpeuxZ6UWEenv9wboJcOK76pIZEJ1MvzEKAS4dghBjDRxMVZ8Np0IQmc5GNdoZEJWdTpAgBxzlxfFMB8qf6DzTgfOmqtd8ZEA0RnOdQQgpcBw4yjQdOJWpdgsDIrFQ/V4MiMSL6rcnYxGR6O/VgFcDovCqf1jIAirXsOj0AuU9Xjq9wLFMDVkaELylmrI2IHhrlSDpHThNdGenF/hvquZsSchC4HpbleJYCJI30ScMC4HqISHDQuCgq2Y9cAsBAcsf1LCBAcEaqGmPlBAEK39UBc7pIHEzncfKIlC2pkgJAW5WQKShAUEa6ixKCFBVQCghQEUBoYQANlYpSggw1M2MDQjMWBUoIUjdUFV4hSBtM1VjIwspu3gLi6ueSNFOt/XO10IEpPOui/C1EEnq6tYKjhYiGKNCFyLgBAma6PbmZGQhEP25LkbMIpIzVRvunwwIwNO9rkPYO1Ky1rW4F4J0LNWWjIUTuJdnuhIpckjIQFdiWoiEXD0jZFqIlEzUpu3KAMdWW7XqwwDHPvQFtHqRiKW+glYv0pBnah0fQ+BWV+3b9A1wqb+RA28GuPQmD+4WBji0uJMLGQEOcKjj4IV+8GyAO8/ygnk6/Flt5cYPA5xZyxGyeuHMTJ4URJzAlV4hV4g4gStT+cIwBJ78Yu9elBKGgSgMbxGxiFREFLygIo6gef/30xmno0LpjbbZJP/3Dp1psmdPtIxAfs0YhkCNaCbqrAygxEr0GccGUCEei0IkTqCDnowJDQ5Q6EJ02vKTBQXirSg15CcL1iVDUYtYL6zTE+LlJwv66P3BYlwI+7TeYKXmBrBoLrr1KJKDRXfqMli7JgTfYU1/Iuo9G8CSZ3EA24WoxtMtwkNeqHCAFQ8qihSLfdBnDQuSD3EEqUWUFUBGcd+Y/Vt07lblEgh3vdDBhRveX28G6NSbOIVndVCKD6+h1/FKrhcdihUV8ZYzOzdAR84V1vzwQDTUsP7YM8cQKKbhrc7qtkxD0Ilb1UuETENQXbgTkL+WhLLQumQpziKUhUxhRrD29UYGaNVI/ZJtnpeFAVq0cGQHhHkhymFCSGwRRUKNKHJQRxEO6Dt6lDigJVdOH9BT0xsDtOBmKl6YMVFHC/rOH9BTSyqt0bjI4Qn6rksDNOxSPEL0Hd+IuB8yJnOCRo0cKvnhKgtlcIGVZzIwQEMGzq6AHDYklYWGRIofsuWyF7ZFHiSwsqwN0IC1eIrcIkgo5jkzQGAlo4xDUIABSGlTKntxlNi7Ach/1yyp4wiLa/HcOwND1DZ4F++dsh2CmvqnEoANA0PUEm0kCIzUUUf0JIH4pLMXlSVOPgJC6AQ5CJjUNDdAJXMJysoAFawkMI8GKO1RgsMXgtLuJUD3BuD7oAsINPzwhSDF99GYHl8ICp14UeHOOQQpzh/cZSEH97s/KHLAQRQ0MFNHNubn38hlIRv5K+ELQSa+j7as2Q/BniSofHu+T3YMsSMKaD+KLVyE/AJhEzZ0neCPfiD9DF/s3WlyokAYgGFAUEQUESRuEWXEZbj//WZqKjU/UpVEsGl6eZ87UPS3Py9gXxb+G1ux36edKzsX8WFjwX649jL29uKf0Pj9ot2s2P2Ov2aG76fubs79EDQTo+8b0LoI2hM/o6gOyueSHLkWbbHImvW73U0piFhrbOT9c9GWpHstFS4dPGGVNrBQSnr3SR67HCy0s3l7SVu/6O61jEv6qpUH3b1W8R8OWrmuG1hjTXcioToIz4Xy6DuxREx43s2FqroFoouDjnKGqIy3yR10dmJExHCzk4MXeDHtvQZbHAg/XnWkImIsn+ZdAa40LxoqpPohRMUkrpEmlQMxSvK9xolKB8LkNJ4YZk12V6iKe59GGfG8Eu032Sxj+Gxu78GyaGCEgtHaXswpGppgEbMZri+PfQPN7RmN6tGJIRHNpfRe9askVteYT/Gjd8ttA01tic4l8N5YeaIl943WXTly2hc1FFI7l+Z+IOGrmcXh7kCeKT8RrYSspZbsHhOJaMON+X3IF/AT0UTIUedBzM/8RDTgnmktGUpO/6LyCpJXA/ISCutK8xNqH8PK6M5SWJo5GNo76xcVtWerjxKqA8G6gtwDY7WqCAjWlVOQ21WIV3I8WinjkuBcLasd7yxluDsu4qgnZ1BEEVtKH2q6MLKugD0HcZRVndlROjA3JnelsmzCpMiQaoZqVRcQigymuDlQ3zubrgexIfjQxJwWRvn8hKEofaxionWpopjKh16yEYVDadwRXbv6udYktKRY1Nwa1FPArIgEKV2J+prOGvRqxj4fvd34RHo0o/ChPz6RD3we4KH1NR5X+NI0JaMl1CLl8zBLPqEuIow7YeLDPMsR1XUhoh0tu2Y6xfRovWx85sqguaqEJVov2STMQ5nNOzIv0tn2yK4SCwTE690ic3pKbJGdWaPVOvSgYdcm95JljC0UJdNQ1glI+z4nGvG2stMq4Yrbj8KEWUGL3WoC9m+4Nf2ItvvT3r0ttwkDARguCBAEE+FgwCBZ2ME4Jbz/+9WeaWfaadNOUtvh8H+X3O9oV7ta9hwjbwkVPUGc+TUd9t94NZUHfvh6jBn3/cljfOTaCr/ISlKt78KSngf+wDeshx+0IbXCW9xeLLoc8UTPtBX+KtnJhcaIJ3fJF+Cfkl4sblYrEEQH3hMj9YLqEV33RAfeyY3MIv6jkJuIugMfc1LxrEdRnFixVxf/5ekoZ1qQBPLIHCKuwI0O1cwOEqc6kFjhip5sPZuKJK8tRweuL226yWdbQdew1Qq3c2q7yd7/6q6lJMftnRo5ufVaW9kQHLifzK6qibxpf6iMZTwX95f4rRx55Z7L1qdJjk+0f1EyHOFrq8dQqheezGIUnqNWFKNplTiFaCN26GJk3HRXyuJTC5OHQpa7lA4gxusSJqLSw53pShAamI7njVUi3jrDjTnbWCi7IaHCJLlZZJXpCj1cmS46o2yUcWZgFpJs078qI9eh9oYP8nS4lka99puMq1vMV7JP/d425WFVi24dV0We58GFM5w5wcX5U1HF607Uq0PZ2N5P9wQFAAAAAAAAAAAAAAAAMF7fAEw8eCVA9SCJAAAAAElFTkSuQmCC;container=0;" vertex="1" parent="R-P3G-_Bv4H8eyaSP3HX-26">
          <mxGeometry x="90" y="10.009999999999991" width="80" height="80" as="geometry" />
        </mxCell>
        <mxCell id="R-P3G-_Bv4H8eyaSP3HX-8" value="Node" style="shape=image;verticalLabelPosition=bottom;labelBackgroundColor=default;verticalAlign=top;aspect=fixed;imageAspect=0;image=data:image/png,iVBORw0KGgoAAAANSUhEUgAAANMAAADuCAMAAACUPcKYAAAAeFBMVEX///9TnkNJmjdNnDyy0KzC2r5eo09QnT9AlitEmDBKmjhHmTRBly1FmDHT5ND7/fvi7eDz+PJwrGSJuYCdxJarzKWXwY/p8uhlp1jt9OykyJ18snKZwpHI3cTW5tR1r2qOvIa307JZoUp6sW9pqVyFt3u917k4kyBb0mZqAAANHklEQVR4nO1d6ZajrBaNkggqJpp50szW+7/hjUlVV8JwAKNAfevuP726O5VyCxz2GeAMBhYwXsym0TmaHoeVjV/XP6oZzRKEgyDAKMniY+76gT7G6kBQ8ApEdhvXD/URJkuCAxaIzF0/1wc4pQnHqEES1q4frSWqKBUyapCt/6K1KHaCafcLTG6F60c0xZYxDTwQWbh+SCOMUKhg1CDEpesH1UZ+jTUYNYinf2O3KmbgQnoHJseJ6wdWYxirFtI7kuzk+pEVGJ/l9luG9Dx2/dgAVgdqzOgOTC++yqXJHlpIKIH+01O5VEuE0POh4/0CtIZJMnJNgEMVZcDkIrNGNJQY2rWytV92vbhB0+73aUF18c3cE4CPGqKXWQWT90cugVMKke37p6s1MEmDMPBBLuVXcCEJnNo6AYxJQJ3LpckRmktpJPaS5vCyWjqVS6AQSlKp6tmAzhXwg70DFEKY7KHXDTnB8gHuG6sLIIQwPawUPy8LVny/ERfRJXBNaMlSYVDpHziD2TvqEBRCQ71vgTVvgmzKJXCPMXLzygBaVvbkEqwFTN1x0HTakkuwEDIPmxTgFodo/3JJIYRaPUA+hbyQtGe5BP72DyYK7IWo94X2gIXQZwt64UYugas5/NTwwpanH7kECqFONkjYC+leLm0uVP4WOxMyNbIol2Ah1OEbBH9Rl3IJFEIdz3TYC/l41X5DIYRAj6LV7wO9kPj6uVwCzZGGR9EGCi/kU7kEbhu9BboVXgjVlP1ClAEkhHQ9ijaAvZD2ckkhhHpOHMFeSLtJD4+/jQSfwgsxN07DDFinlhKxsBdiuomMIXtqMQIMeyGZwWavEEJWI/WgF6JfZAHqE/sZFXA70ZNLIyia3ZU2MQLshYRItbZzSAg5y1DCXkgGyiWwtMFNaPQb4Oy575XSZbWgljyKNoC9EImmAYWQy1TDN2AvRKQ9C0hg9eBRtAHshdAd84xVKh/ZnjyKNgC9EBS+2Yryy2xUnQFWoeTlScdySr16FG0AeiFf/+zYRvopL0vRoKhc/GPU17Lh9LVkUO6F4Ov3JyS0PS7tlHsh2bPKW0zJn5oSIaT1qUnzv0PRVutX7Y8QEi/kIQ4iwSj6VqMlhtALweu7beSNnhOPog2EXgjZDGp2BO0n8T+AwAtJR4MlM370jx3lqROGAJoPDu+jF3trv6XYvZPCu0H0TnLm+gnNUTAW4TpgzINn6k4LzAYb/Rc4hf/n1CeKVV6VD4yrfFW0dwB84LQpF8cpjmkcZ+kTWRxTGka7/WncYidxzSkf7lKaPs/rssAIhRkNLwvDCFXXnPLxC1TTp1oiGiqPEuEki28jg6nYMafjV/aLOAYDootA/2gUSulMe7S65ZS/BzJ+vEwRoyWBqspFtGikqWm65TRitrtE9kEwiioDjvViv/1yQuKPlWDlP8SK3DTWlQtOR9KO0eMbE/VQ2edUrHXO6spBlI9kndNGuBWZgO494/Q5pbtPt/SK0yT4nNJ9pOCwnGVOhxYmXAACpiHsclpAeVgTpJBJt8ppIzfiGIUPNU7uoA+FHkIrD+184bQTz7y7mAuny+FonK82RYPNKh+Xw/kuIJnsZDI0+2xyykXDhFN6q2V5x8l4G4kT5Tjyg9NM8HRZpLpeZjWPRUoqkwtai5wm/DDhTOfCnMleMMB46gOnmksCoUgzWZJjfoiJ1DmzyOnGPhe0JhhM1hypRBrGt8iJ25uIQfxkcuYM4Nk9Jy4JJH/RIvCJcyqzlvY4lexyomZhLi7NLL2Qyx6nE/OrDFbTE+zsQ0fnnLbMLiN9JN0vly4oe5zYZJ3ZcmrAbr3EOacjy8m4NmHPfEMsMRIOORkXnlbMbpBKdKw9TuxbRjdTTuwOJzN87mxEEBpzurxbPtnDubPlLXImp/d990ui+OxxGvPayDinv7x7wP+Qut9zBVWBtJ+jwxY1rMAjTOJ9D4VMFjmxxvz5CXqeK3NvhrDIqZQEwpKMrJd13h0xm/EIeYIGozQj0WxRdsLMJiduh2KAkjQmwWE5/JCaTU4TrShsE72MSXidbUdVu9pOqzHLk0FoGd9HLaPpdTkcmzKzGy+fGqcA7qOWEbxbmNhGu5wmLbNPqLGNc90zFZZzNausdf4JJxndaZV+2M4TrtAnGSiUkpt6tKznc4u1+S24b18Zn1XxaAe1BFuD+5dFwKoj+y7qI1ZT4AyzFugUsu9O6lgG1bRNbc7rF0P11G44DQb5kQLH+zQAHIlxxemO8hZLU5saoD7kNQQYz9ckU1clikHc++4STKrh7EwySfkoCPcxFpBY3pT5IkqzNNQnJ8si+MHph9qqKofz2RQTqjVwkmv2veL0i1VVb28RpSlsRPBf4vRDrdzuQsDoiwsK/Ob0JFbPkkxSASOMuf8BTg2qeSiUvsIU1B/hdEctuvshE1XH/h1OjaDnOAmfzxqn6uXMQ9sbQsYcKSQqI7XEaRLR10MPactzlyM28IQP7jjN339P2PbCHe56AVHu3RInptaoRd7zCe7gumjFWuLEle615MQl5lJ3nNg8DWl5I0DO3j6QueM0Z8L/acujzDk7TqJEtyVO7DoQ2mANsCUSwklsiRNXFNZyN2a/R3hqzBInfh20m3xcIZbIgNrSEawCAI7lQWAv7BAWYtniNGU3y1YXHuRsPYLQ1tjixOc9UYv85oF9M8I9wRanirvWBskLxGWouS8RliVa0+V8XCExJVVxslxc12iNkyDpjiKj++Fq3n0S181b41SIzieQufai2uz4S5kkxtOenys6gaJdcJQfRYkQie20WBcmPtD1KDgCFe2k2p6FB4Y8iMNuZedyk5QEt209zjfvM7FYVaPFMSKyq56JJAZgM8bCH7l4+WQSpjGlWYjPUbSOogCHzV+hCLPUsXR+Tk0AjLWyAOLAsmVOg9EHB905eHH+6Y5tq96zYkpenL3rlNQXUCRhOw477Gb6gSXP1mPLY0mKwgQIgRu1g/sjwPvvdUAvsKJykQMAOyArkaSqWxud5DUmc9NLc34ZacheR7maYpul5uUeOKR7jWCnu/xTfSWhEa2ERict18RlTm0znBJFYv3fF4X0vNU9BuE4Tzgp51cSQ0q1Kc2meCa9usA/Tg/ko+1tnZLmprowSRJ0x/2PME0zSpLr0bgY2wdOTzRFLKPTYjt/YLs41WW1anUeQMEp8SlHrQtmT48G57e/44vRt3nBacVwWg+m7/+QGp2i9YHThsn53oeFDe8Y9QbxgNOcrYpGy8GQVS0mPVycc6r5W/DCkyCwbXAztmNOwt48NOcs4QO67a2dcpL0UGpCMWw6+Qm9m+ZdcpJ0DHqkCSTxUq2OAOzVONJwVeeQdgx6ZqiOEt9Go731gv3R/sk8sJrKYjfftx9MpAdfQlW/RuaQfdNfwAKgpjU/s7+Ux3boFNLHE+ZtCau2OscJaJ34G1LfyqMgYHtrrrLj2D8jsIf062pZAqGdRFLVPeAPFZtfuWIKuFkXfSupE5Rp/iKNxOffuMuzlBGeTwFfB8wevRmDfXiFDSq23CYO3iH9OUZQC+4gSbg3DzekR2TO7lZHXpfQPhmBrROblm+iH5Ib/cdroMfXURhH/DszdL6MALZOhPrpwn14EQ32ZX4frqJanEXnbsP++v2BTT/vTw0deAX78DbnZWNKCZVsEG2LKZVQvOtYoXfgZQWirx0X7k2tpUvhZQWgn1Y3cPc+7X7v8FBLX5j0HsNPAHZZNOpUpVhWQtAehgnuhmnYqcp8WaHuVxMshFr0vs0Nl1XcudHbwva7Ve9bo2Vlfm+WAiMEXbnfvvet/rJSu8RmkLYffAB0gFTQXVYdt5VTCSHQUVUjv2jcKEC6FUVgD+lAdZuEDvKbglUYdOpilJAj21nLzs0eSDAn3TZI70AI6aK+ElEi9q5pOb/qEyiEUNctO1eLNXnNw2IUxnTXrbMOCyHdgLcRinJ7W6OM0ruzER2Wp44bvquEUKdz3AqKroWQe6iEkEe9yzUxEvf3/VlI8gijt8ivcESon9tK9VFqV9T8QN4v+wHqund5fqCJ4WuFdbIys9I3vt94Ir1wlwcY0Xffu7zY/zNduvu9Sgjd3PYuz4+vpZSYHNUTcLJXCKGO93QzbIZc5xz1BKxDOKKvP4G7R3ESF1DCE7CKIPvtWAitvmQVocAElJQ2/PwgvbgVQgVwpRmSREIUQujsXAgVUNBMNAFLUAih2Iv20dBDchNQFRHSMJh2AE2mtwmoCETFroXQKzYXrQmoEELYsRBiMZYVAD1m1KyZUZ4LIRGg/CRK56cLdKOqcyEkAeh+I/Bgg2MhBAGeXVIk0nZVXmAIxoXFI+h9RAiWPTycCyEtwHE6Bh4IIT2cdPNWngghLSgSSD/Tzh8hpAW44ukBr4SQHuCAvn9CSAuQXjUsbfAIsgCrr0JID8JAStaqtMEfTObkXa/j1G8hpIVicabPnuC4aW9y6LsO2BJW9X43vU53y2HXLbqE+B+fH93M0+kFaAAAAABJRU5ErkJggg==;container=0;" vertex="1" parent="R-P3G-_Bv4H8eyaSP3HX-26">
          <mxGeometry x="10" y="10.009999999999991" width="70.92" height="80" as="geometry" />
        </mxCell>
        <mxCell id="R-P3G-_Bv4H8eyaSP3HX-29" value="App" style="text;html=1;align=center;verticalAlign=middle;resizable=0;points=[];autosize=1;strokeColor=none;fillColor=none;fontStyle=1;container=0;" vertex="1" parent="1">
          <mxGeometry x="520" y="270" width="40" height="30" as="geometry" />
        </mxCell>
        <mxCell id="R-P3G-_Bv4H8eyaSP3HX-33" value="" style="group" vertex="1" connectable="0" parent="1">
          <mxGeometry x="690" y="270" width="80" height="150" as="geometry" />
        </mxCell>
        <mxCell id="R-P3G-_Bv4H8eyaSP3HX-31" value="" style="rounded=1;whiteSpace=wrap;html=1;strokeColor=default;dashed=1;dashPattern=12 12;" vertex="1" parent="R-P3G-_Bv4H8eyaSP3HX-33">
          <mxGeometry y="30" width="80" height="120" as="geometry" />
        </mxCell>
        <mxCell id="R-P3G-_Bv4H8eyaSP3HX-15" value="MongoDB" style="dashed=0;outlineConnect=0;html=1;align=center;labelPosition=center;verticalLabelPosition=bottom;verticalAlign=top;shape=mxgraph.weblogos.mongodb;container=0;" vertex="1" parent="R-P3G-_Bv4H8eyaSP3HX-33">
          <mxGeometry x="21.75999999999999" y="40" width="38.24" height="80" as="geometry" />
        </mxCell>
        <mxCell id="R-P3G-_Bv4H8eyaSP3HX-32" value="Database" style="text;html=1;align=center;verticalAlign=middle;resizable=0;points=[];autosize=1;strokeColor=none;fillColor=none;fontStyle=1;container=0;" vertex="1" parent="R-P3G-_Bv4H8eyaSP3HX-33">
          <mxGeometry x="5.8799999999999955" width="70" height="30" as="geometry" />
        </mxCell>
        <mxCell id="R-P3G-_Bv4H8eyaSP3HX-34" value="" style="endArrow=classic;startArrow=classic;html=1;rounded=0;" edge="1" parent="1">
          <mxGeometry width="50" height="50" relative="1" as="geometry">
            <mxPoint x="680" y="360" as="sourcePoint" />
            <mxPoint x="640" y="360" as="targetPoint" />
          </mxGeometry>
        </mxCell>
        <mxCell id="R-P3G-_Bv4H8eyaSP3HX-38" value="" style="endArrow=classic;startArrow=classic;html=1;rounded=0;" edge="1" parent="1">
          <mxGeometry width="50" height="50" relative="1" as="geometry">
            <mxPoint x="430" y="359.81" as="sourcePoint" />
            <mxPoint x="390" y="359.81" as="targetPoint" />
          </mxGeometry>
        </mxCell>
        <mxCell id="R-P3G-_Bv4H8eyaSP3HX-41" value="" style="group" vertex="1" connectable="0" parent="1">
          <mxGeometry x="170" y="250" width="210" height="180" as="geometry" />
        </mxCell>
        <mxCell id="R-P3G-_Bv4H8eyaSP3HX-39" value="" style="rounded=1;whiteSpace=wrap;html=1;fillColor=none;" vertex="1" parent="R-P3G-_Bv4H8eyaSP3HX-41">
          <mxGeometry y="30" width="210" height="150" as="geometry" />
        </mxCell>
        <mxCell id="R-P3G-_Bv4H8eyaSP3HX-12" value="" style="group" vertex="1" connectable="0" parent="R-P3G-_Bv4H8eyaSP3HX-41">
          <mxGeometry x="10" y="30" width="190" height="140" as="geometry" />
        </mxCell>
        <mxCell id="R-P3G-_Bv4H8eyaSP3HX-6" value="UI" style="text;html=1;align=center;verticalAlign=middle;resizable=0;points=[];autosize=1;strokeColor=none;fillColor=none;fontStyle=1;container=0;" vertex="1" parent="R-P3G-_Bv4H8eyaSP3HX-12">
          <mxGeometry x="75" width="40" height="30" as="geometry" />
        </mxCell>
        <mxCell id="R-P3G-_Bv4H8eyaSP3HX-4" value="" style="rounded=1;whiteSpace=wrap;html=1;fillColor=default;container=0;dashed=1;dashPattern=8 8;" vertex="1" parent="R-P3G-_Bv4H8eyaSP3HX-12">
          <mxGeometry y="30" width="190" height="110" as="geometry" />
        </mxCell>
        <mxCell id="R-P3G-_Bv4H8eyaSP3HX-1" value="React" style="shape=image;verticalLabelPosition=bottom;labelBackgroundColor=default;verticalAlign=top;aspect=fixed;imageAspect=0;image=data:image/png,iVBORw0KGgoAAAANSUhEUgAAAgAAAAHICAYAAAA4K1K+AAAABGdBTUEAALGPC/xhBQAAACBjSFJNAAB6JgAAgIQAAPoAAACA6AAAdTAAAOpgAAA6mAAAF3CculE8AAAABmJLR0QA/wD/AP+gvaeTAAAAB3RJTUUH6AcSARIa+qeT1QAAgABJREFUeNrsnXl8XFXZx3/PXSZJm5YdoaV7ZpK2QIGybwqKiOxLZG06k5YoxQLqqyAKBFQERKSIqLHNTFtAJMguIIhlFYQWLJA2M5M2XWiRvUvaJHPPvc/7RwIW6JI0OXfunTzfz4fP+wrtvWee85zn+Z1zz3kOQRB6QCWzObjZ2ddjHMVs7AvifQgYB6C0l49eB2AFA8sBLDKI5oPV/PpY8VKxuhBWJmfbxxiedSCID2RgLAEjAQwDMLiXj25lYBERvcHsvWESXlhXZr/RQOSK1YXuQmICYVtMzfJeHjsneaCTCDiqD4JXT/gIwKsA5hPRK3DNefUVtF56RQga52d5cATuMQQ+2GMcSMCBAHb2sQnrADwH8KMu24/OKadV0iuCCAChx0xp5J09yzkPRFXoDGRB8RUHjBeI8Ljnek+kxha9Kb0l5Iv44o59yDROAOMbIBwJwA5I0xjAK0w8Jxex/3z3CPpYeksQASBsPaClcwcZhO8z6HQARcFvMa8kMp7wPDw4crX5ZO0xpKQXBV3UzmNr2RD364aB05i9bwA0LATN7gD4fs/Ar2eXRRZILwoiAITPkMg6x4PxYwBfDvHPeI9AfyH27pxVHnlFelXos/GRyR1CMM5n8NkAdg/xT3mGgetTMfsp6VVBBIDM+A8ig24A49iC+mHMy4noHs90Z6XGFGelp4WeUrWEhxueOtcAqpkRK6jAT3gRHq6oL7dfkJ4WASD0uxk/7wZ2fgVQVYH7AQP4B0C3jYiaj9USedL7wpaoZTaWNbsnEvMlAL5a+GOD59hs/19dOX0gvS8CQOgPyT+TSwB0M/zdoRwEd29meLc7ZCfvitI68QThE2qW8A7KcxLMxncBHtPPfv6HBP6/+lgkJZ4gAkAoUKoW8y6mqf4E4PR+bor1BEp5pvqtfB7o31Q3tZd7pjWdmCej97Usws79hmNdOGs8fSSeIQJAKCDiaecoIvwZwFCxxqd4AP8FxD9PRosWiTn6D1OaO/b2mH4KpkoAhljkU94mxrmyN0AEgFAwyT93IRHdDiAi1tiSEMBjBvHVs6KR18UchcvkbMd406PLmeg8AKZYZLMoMH8vWR65XUwhAkAIKbXMxoqseyuDp4s1uicECPir53o/kwJDhUV1OjfBI7qKgDMk7nWbGSOi1vdl46wIACFk1Mxn2xnszAboXLHGdqwIMN/nGd6Vs6PFS8Qc4SW+pD0K1/ylJP7tg8F3jVxlx6XAlggAISRMz3JRK6v7AJwk1ugVOSLc3h6xfi6lVMPFlEbe2bXVVQRMg3z66i0PtzpWZcN4yokpRAAIgZbsTNUZZzYTTRJj9BkfMeGmQbBu/W2UOsQcwaVmPttqsJNg0M8B7CYW6atEwfcMj9rny+eAwkJ2vxYYiWb1K0n+fc7OxLhhA9Qb8bQ6TcwRTOIZdYYz2F3EoD9K8u/jeQXonOVZ9UuxhKwACAGlOpu7jJl+I5bQHg3nMbxpqfKiJjFG/pma6RjrwrgDwFfEGrpdny9JxSK/FUuIABAClfzVt5j5z5BVHb9wAPxetVlXzp1AG8Qc/lO5kksGbVSXM+EKhOLmyoLAA9HZyah1n5hCBIAQAOLp3EFE9ByAYrGG70OomYgvro/aT4otfBS8aXUCE24HeLRYw3faPYOPlKuFRQAIeaZmNQ9wWtVrAMrFGnnlUZOsi2ZG6W0xhUZ/X8R7KtO5Ufa55J0mu9SaWDeENoopwossF4ccp9W9WZJ/IDjJZfVWdSb3HTCLsO5rmKk6nbvYsVSTJP9AUJHb4N4kZpAVACFPdC6D8t8C2I8OgPcZ+MDo/L/c9e+LCShh0E4A74XCPZ/9lGtaU+eMoRXipb1nyiIe4dmqHoxjC/QndgD0NoHXMLCx838DBJDXeZphNwJ2BWAHTpYZ+GaqzH5CvFQEgOAjNWne1YF6E4Q98h+88ByA54jwivKsxjnltKo7M7qaxdgjZzsjiI1RIJ4IxoEADgAwqAC6aC3A30vGIknx1u2f9ScyzhQQ/RrA4AL4ResAvAZgPjMtIPJabGWvqBuL/4KIt/WXq9I81DLUeAYOBeMoAEchz5sfGXgnwta+deX0gTisCADBr9l/xrmXgco8vd4D4e/waHaJMv92x3hq7asH1zIbyzK5GIGOZKJvEHBcyIP/o7ayaurG0Tvitd2nKs1DTUP9CYwTwi0C8RQRP+F5/OLIWCTTl4V0qpt4kEfuiUQcR+c4yc8nXeZ7k+WRs8VrRQAIPjAl4xztAc/m4dWKmWZ7nrppztjijC8rHfPZzu2gjqDORHAygLEh7LKPAPpuMmb9Wbx32ySy6gJivo2BnULY/MUEPMyEx0e8bb3oVw396qb2cjasywGuQh5uOWTG0aly+3nxXhEAgt6RRvGsepmAg31+8z9MeJfMjBUtzm9yyB0Ajy5gwjkE7Bmywdbg2VZNahStEUf+Iuct550iHepPBJwZsqavJsI9BL4z39dJdxVFug3A13x+9b+TUeuw7nzKEEQACNtJPK3OIWI/Z5LrwTQ9WW7NDpIdKpnNQc3qq+zxJBBVIjSFYHgZEZ1XH7VfEm/+H5ObnCMMg+8GaHhImtwO4nuZ6c4NUeufDURukBpXncnFGXQb/NxPw3ROstz6i3izCABBA9OzXLSe3cUEHuXTKxex6Z6WGlOcDbJdJjXz7panagBcBGBICLpSgXH1iJh1Y3+/XKWW2VieVVcCuAaAFYImvw3GHTasPwV941vV4vaYaZoPwrfPZrS01THHyq2BIgAEHao+7fyACTf75Bn/zME6/a4orQuLfWrms50b5J5JxJcAOCwETf4H29ak1Cj6b7/05yYewqaaG4bjfUR4EaDbrLXmA3UHkhOaMbGEd3Bc9SD8uieB+PvJaETuIxEBIPQllSu5pLRNrUDneWCtMPAkbOvU1ChqD6u9Es3O4fBwNYDjA97U99jA5P52ljqeVt8k4hSCfmsf4XEGX5eKRl4Oeex4CJ0nBXTzfmuJNaJhGLVJ1A4+UgkwJJRudM73I/kDeM3wrLPCnPwBIFlm/ysZs7/BxIeB8HiAm7o7eXgskXFurJ3HVqH7ce08thJZ52YifjTIyZ+BvxnMhySj9jfDnPwBoGEYtZFnnQnAjw2Kuw1sd86ViC0rAEJfzpgyzkIC9tUb9KgFtnl4IS5JV6dzE0D0EwbOCqrfM/AcbOvsQv0kUJPmXRWpexj4aoCb+Q+D+SezyiOvFJr9E1neDez+C+Ayza96Kxm19pUTASIAhL4YuE3OsTDwtObXtBuGd9CssqK3CtmW1WnnSI/w6zwco+yuDFhpMM4qtAQUz+YOJab7AAwNaBNfJsL3C/10RlVTx76mYbwCzadmmHBMKmo/I9E72MgngHD00qX6pSBfWejJHwDqy+0XUlHrUCb6FoNaAqjJh3lEz8UzuUsLxebVmVwNMT0bzOTPK4lpcjJqHd4fjmbOqSh6gxg/0R9OcIkEblkBEHo7c1rcNpJMqxkaq3sx8NzIqHVMfzuSVtnIkYG2cxGBrgWwQ+AGJ/Pc9QPsb4d1Q9X0LBe1wr0dzFMD2LxWYvzai1g3hH2/S0+pZTaWN6unNJ++cAlurD5WvFSiuKwACNvbQZZ1IfSW9mwzlVXVH8+jN4ynXCoWmaEMKwZQPf53a2Ew5qZEk0rb1XNVS3h42Gw7ZRGP2MDqxQAmfwbRTJA1ur7cru1vyR8Aaok8VmoKAJ2/3WSYCYngIgCE3kQr1nvhDzNmzBpHy/uzjeeW0XvJmDWFGV8G0BiwdHWg6ar51WnnyLDYM552jvIsNZ+BiYFqGOFNz8NRyah1YTJK7/dnn0+NLVlGwAzNr6mEIAJA2D4S2dwBAKIaX/F+xLJuEEt3BcVy+/kRq6z9GHwZgNYANW03JjxdncnFA++zGXUuEZ6EP0dWu8tGYlzbmrMOnF1hvyie3olnWzcA0FnNsLyqqWNfsbQIAGH7pixnaV5euK5uDK0VO/+P2mNIpWKRGaan9mXgbwFqWoRByeqMc0Mtc+DGbS2zEc84NwF8N4DiADXtEUNZ4+rL7VopUfs5wTuK1jD45zrfYRrGt8TSAc4wYoJAz6ayGs/svltK1ojfRqlDLL2VPkirs0H8OwC7BGbQEh50NloXzJ1AG4LQnmmNXNpmq7sAnBKgrnsfRNOSUes+8eItE2/hYnLUCmgqykSETH3ULhdLywqA0AMmN+cm6izYQYw/SPLfNsly6y/KsMYBeCAobWLGaWaJ+teURTwi322pSvPQdls9E7Dk/xh51n6S/Lu1CtAOoE6jr8aq07kJYmkRAEJPOsaj0zU+Pme51h/Fyt2jc5OgfQaY4gAC8cmEgH1dS700JZ3LW0GjeDZ3qElqQVA2+xHwMYgmJWP2ifUVtFo8t3u4bP0egLYLjjyiM8XKIgCEnqGtXCqDG+rG0Tti4h6vBsyGYe3DwJMBSXh7ekTPVKfV6X6/O5FVZxHTPABfCoQtGE8otvZJRq07xVN7xpxyWkXgv2rsm6+KlUUACN1kWiOXQuOsyjBollh5O0VAGa1MRa1vgHgagCAU6Clh4oZ4NjfNt+SfyV0C5r8gGJv9NhL42/Ux65tzymmVeOj2rgLQTI1K9aBJC3mgWFkEgNCdiFakjgRga3r8u+vHWM+JlXsT0IiT0cjvTXgTGXgjAC0yiel3iYwzQ+sJAWaqTju1AM0ISOxYxK53aH0sUicXz/Qy5sSsZwC8p+nxtlmiDhcriwAQuiXH8WVtMZzovgYiV4zce2bGihbDtg4BcFtAmnTJioyTqpnPfS4eKxs5Es86c5lwTSA0GPNcu9Q6KDW26E3xxN7TGRNI20ZXg/AVsbIIAKFbE0x9g4XADWLhviM1itqTMftSYjoDwEf5bg8TTVKD1ePnZ3lwXz1zWiOXDrLUQwQ6PwAmXwumc+rLI1V1Q2ijeGDf4bG+2MCeCAARAEK3gi30ff9/t7XMekGs3PfUl1sPsKsmAsj7jXIMfDXCal68hffo7bOqm3hIm62eZ8I3AiCMX3RNa99kufUX8bi+Z9Rq61kAekokEw7qim2CCABhS2yw1CHQ9v2fn5blf42rAWNLlo1YZR0Nwq+R/4uFDoDj/iu+pH27S0lXN7WXMzn/ArBf/jUNbhr+tvWVOWNohXiaHmqPIQXif2p6vN1mqoPFyiIAhK1gagy2zHhGLKw/iCaj9v+B6HTkuWYAgUeRaz6/PYVYJmc7xnuGOQ9E+S421MpEZydj9uW1x5ASD9POs/qCG0tBIBEAwlaTNPE+2h5ueSIAfCIZtR4izz0EwKI8N+VLTPRMddY5rLt/IZ7OHWSw8SwBe+a57VnD8A5LRS3Zt+JX/PF4nr6HG/uIhUUACFuft2lRyQy8kxpTnBX7+kd9RXGaPOtQBv6a56bsyIyn4hnnuG39wepm5xgiehr5v/vgUbatg2eVFb0lnuQfqfKiJgBaqigSWG4GFAEgbInaeWwBqNA0+OaJhfMhAmh9KmpVMuMnAPK5/2IgAQ/Hs+rkLSb/tDqdPTwOYFAe2+mCcWUyap2SGkVrxIPyMAUBa6kTwsC4SmZTLCwCQNgMLXvlyqGruhphvlg4XxGVOFVuXw/CiQDymdSKifmviYw6dzPJv4qJ7wVQlMf2rQHhxGS5/Usp7JM/PKZXNT26ZGAmFxULiwAQNpcn2NS3ScalhWLh/JKM2n9n0z0YQDqPzbABviuRyV3yyb9IZHMXMXESgJVH719iwjs8GbX/Lp6S9yWAN/U92pSNgAHCEhMECa7Q9mjTkoppASA1pjhbtZiPME31V0BfxcdtxmHQrfG0YxkGIsz4ZZ7N8ozrmmclx1ofiocEIClY1huuUpocj8eKhWUFQNjc4CBt97uvTkbpfbFwMJgzlj4cscr6GjHdkVd3I/w638mfmWa1Otbxc8aSJP+AMHM0vQvgXS39TTRMLCwrAMLmR8dwTbJblv8DRteZ9ovjmVyGQL8G0N82R7lM+EkqZt0o3hBI3gBwXN8/loeLaWUFQNh8ptajjhmNYttgkopFZnBn0aD1/ehnr2emU1JRW5J/YCcj0HX8coQYVwSA8PkZIbMBsBYBQMzLxMIBFgFR6xF2vSMAvF34eQXvGMRfTpVbj0nPB7ifiJdrevQwMJNYWASAsAkr0tgDQETHsz3DkPrpQRcBY4veZFcdBaCpgH/mYlNZh82KRl6XHg94YmBtMaN40hLsJhYWASBsmqRNR9u3McPzRACEQgSULDMc6wgAhXhj48s2W0fPGkfLpaeDj2vqixmm68hnABEAwqYQjL20PVvZK8XC4WDWePqotcT6OhgPFdDPur+1xDq2rpw+kB4OB0WurU+okSEnAUQACJ8ZE+ztqunRrbPG00di4fDQMIzaWmPWmXk+JthHjk23t0atbzUMozbp2fDQJdY2aIp1O4uFg4EcAwwIDBqs6dEy+w+jCCByAVycyDjvALgOQNg2TjERrqyPWjdIb4aWtwGUaxCFO4ppZQVA2DRaMnbS9GgpsBJikjH75wT+DgAvRM12wVxTH7Ul+YcbXSuHO4hpRQAI/qjiNWLccFMfi9Qx0/kAnBA0N0dE5yXLIzOl58IekzTFDlkBEAEgfL4jPC2Dgpg/FuuGn1S5dY8BOh1AkL+ldzDT2fVR617psQKAWY8A8PTEOkEEQIgHmyZVTIasABQIs2LW30A4AcC6ADav1WOcmCq3HpSeKpj0ICsAIgAEf/I/tAwKD5pUvJAXklH7WfL4qwACc6SOgI+Z+LjZ5fbT0kMFBGmLHSIARAAIn6NUSwcz1oppC4v6ish8dr1jwfhvAJqz2iXvqFQ08rL0TKHNSrTtHxokxhUBIHwWLbfBscEbxbSFR2ps0ZtsuUeDvXyKgFUeuUfPjhbJZVMFKQC0xQ45fi4CQPgsZGsZwx6U2LYw8VTRRobh5s1j2TMMKspJTxRsdtDlW6YYVwSAsGmi1jUo9A1iIY9ULeZdTFJPEmFo3nyWjD3hqcfOW847SY8U4JSERQCIABD8GWzwtAwK8gwRAAVGzWoeYFnqIQDjAtCcvYs61GOTFvJA6ZnCwiM9q4cMkk8AIgCEz6VqLYOCDPkEUFDJfz7bzgZ1HzOO8H/Kv8X/cqhVou6pnccS2AspImmaPOia7AgiAMKMlkHhefIJoGBgptxgtw6ME/KS/Ld+G8FJy4c4STCTdFSBCABtkwdZARABIPgiAGQPQOGQyKhfEzien2zQnT9DF1Rn1S+lpwpEb+rbQCwCQASAsJk5loYlANlwUxjJ3/k/EL4XAie+PJHJXSI9VgABibTFDhbrigAQPkuHlg4mr1hMG27iWVUJ4MbwtJh+E8+oM6TnQp4cyCvRk/65XawrAkD4bNDUNShEAISYKencwcScCtlYNQh8Z3XWOUx6MMR4mmIHkQgAEQDC52Rxh57BJgIgrEzOto/xiB4BMCCEzS9hxsPxJe1R6cnQTkp0xQ4RACIAhM/maV2DgkQAhJCqxbyLCfMxALuH+GfsSq71eCLLu0mPhnBKom/yIAJABIDwOQWgZ1B4sgIQNipXcolpqIeZESuANDIGrP4ab2Hxw/AhAkAEgOBPnNQzKDygSIwbHmqZjYFtai4IhxfQzzqKcs7sWmaJNyIARACIABA2k6i1DAoyqFSsGx5WNKtfEXBmwf0wom+tyKrrpYdD1Wm6yjt3iG1FAAif7Qg9V2+yt7NYNxxUp3MXM+P7hfr7GLi8OpOrkZ4OS/7XEzsIckW5CADhc8GRPtIy2JhEAISAeMY5jolu7Qd+fvvktPNV6fEwdBbtoue5xkdiXBEAwmcztZZB4RFEAAR95t/UXm4Af4HPJVIJuJEIt/j8c22DcK8cDwwFWmKHR/yhmFYEgPDZqZGeFQBoUvFCn3Dect4JpvkwAzv56298Z33U+nF9mfV/DEr5nVjINR+Jt/CO4gGBDkp6PgEQfyy2FQEgbDrUNK0AkKZBLPSeSmazKKfuysNxv0dHrLYTIGIQcWSdWQPC4z63oRyO+otcIRxkNH0+9OQTgAgAwZdBwcCOEmSDyaCMe1servZ9WbVZ59QeQ5/e9FZ3IDn2QOssIrzoa3oBvr58qLpZPCF41MxnG8AgTR0vnwBEAAifS9W6BgWtHoIdxb7BIp7NTWPiaf5O6PAm29YJcyfQhs//p7ohtFEp61QAi3w2xaVyMiB4tO2IndC9S6B7Ptfx5BOACADhs+nf8LQti7lmbg+xcHCYknGOJqbf+Pza1SDrxNQoWrOlPzBnLH3osvV1AG/76vug2xNNzrHiGcHBdp09telQ8mQFQASAsClFTkSfAICxl1g4IDP/Je1RD3gAQMTH165zPe+EZBmt3NYfnFNOq0B8KoBWP/MNDNw7pbm9TDwkGHgwhup6tmVHZAVABICwKUPexfsAXC2K22URAAHg/CwPJtd8GPD1aKbDwFlzKore6O5fSEYjrxmgcwAoH9u5i+eZD1U38SDxlAAkBvJ0xQy1dhQ+EAuLABA2oWtT1n+1CACQCIB8w0w2q3oAFX6+lsCXpGL2Uz39e7Ni1t/AfJHPVhrHpOaCmcRh8r0CoClmMK9qIHLFwiIAhC+i5dsrGzRUTJtf4s3qar9r/DPws/pY5A/b+/eT5ZGZAG7y1VCEUxNZdaV4TH7RNWkgg94W64oAEDYfsLUMDvLkE0A+SWSd44lxlc8z/3tSUeua3j4nGbWuAPOdPpvsuikZdaJ4Tl6jkZaYwWARACIAhM0HbV0rAJAVgDxRtbg9BsY9AEwfX/vsQLLjIOLeOyVxq7KngDHPz7jE4LmyKTCvaJo0yAqACABhS+hZAWDICkAeqG7iQaZpPgD4WoehkW3rtN9Gqc+uXG0YTznXsyoBpH2bfwI7eWzeP62R5Trr/KBl0sAeVotpRQAIm0/Vq3QF0/OW805iXx9hJhhqFoBxPr71Q4/cU7d21n97mTOWPjQ9dQLg4w5uxj5ttpojmwL9pWox7wJgsJ6Ms+2jqIIIgH6aM/R9H4u0O7Kc6iOJrPoJA5U+vtJhwlmzo8VLdL1gZkVJi9G5kTHn4+86Pd6sfiQe5WNSsBxtNzUasgdABICwBTylTx2TIdev+kQ8rb4J4FpfxSPxd1JR+xnd75kVs58j8KV+/jZi/CKecY4Tz/LJ3jDK9PmpJQJABICwOTZUFK/UNrsiFgHgA1Ob2kYZxHf6ObaIcEsqGqn36331scgfQHS7j2Y1Cfhz1RIeLh7mgz95rEsAtI8Yg1ViYREAwmZoIHKJsCxkg1roYnqWizzDamDAz/0Wf19fZvm+RN5aZl4G4DEfX7mL4aqGykaOiKfphfVNFpbUEnliYREAwhbwGFlN00RZAdDMenZvZWCij69sYts6Jx+V1RqI3BxZ5wJo9G1mChxcaqtfiadpt7SeWMFoFtuKABC2jhYBQEBMTKuPeFqdQ+Dv+PjKjwzDPVnHjv/ucleU1hHcUwBfa7tfUp1V54vHaRVaZZoenBXrigAQttYhzFpUMgM7TWnkncXCfU91U3s5Edf5+EqHDJw1q6w47zOq+ljxUr9PBjDzH6ZmOsaK5/U9VYt5F32fsFhWAEQACFvvEdKmkpWpJGj2MZMW8kA2zPsB+HaLHYEvqS+z5wXFBrNi9nNg/oGPryx1yfhLzWoeIB7Yx75FSttlVR6TCAARAMJWO8RV2gSAYfDeYuG+xRrg3AE/i/0Qz+nNBT+6SJZHbmemWb69kLFPrtWpEw/s4xhh8r7ausyy5BOACABha6wtL14BoEPLACRjH7Fw35HI5i4CU5WPr/x3KeyawBokYn4XwKu+aSHQ+fFsrlo8sS+DhLYY0TF6NKQGgAgAYWt07eheqmdwswiAvkv+B4DpFh9nvP912TqzL2v89zWpUdTumtZZAN73TQQw3V6dzk0Qj+wzR9O1SihHAEUACN2kUVNniwDoA2qW8A5gowFAsU+vdAionFNOgS+iMmcMrWDCtwAon15ZwkQN1U08SDyz1xMEgq4YwfyWGFgEgNCtaQ3e1DOJxE5VaZargXubjV3nDoBH++cPfGl9uf1CWOyTitrPEPEPfXxllE3nT+KZvWPKYgyHrpsrid4QC4sAELozVjx6U1uHm0pWAXpBIp2bCtB5/uV+npuMRn4fNjvVRyO3ApT0b/ZKZ1enVZV46PbjWa622ECkL6YJIgAKSwCYSp8A8OQzwHYn/2zHOBDN8PGVr68fYH87rPZi25wGwnz/NADfEU93VIinbq8B9e0R8pQjKwAiAITuMGxM0VIAG/SMcX3HfAqZeAsXA8Y9APw6e/6uSdYpDcOoLaw2S42idlaqEsCHPr1yIJFx9/QsF4nHbs/MQ5sAWJ+qKF4uBhYBIHSDrt2yi/QMcpooFt4OsznuLWDfVk88BibNjFLoj02lxpYs8xhnA/DrvoL917O6QTx2u7z8QD0rC3gTRCz2FQEgdH8w6voMUH5+lgeLfbtPIqNOgr91/q9OxeynCsV+s8vtpxm43reRA1yayKpTxXO7T80S3gHa7gCQ7/8iAIQejhlP16AxbKgDxMLdY2qW9wI41ZlXfEleT7dGrYKbwY6MWrUMPOnb8GFOVi3h4eLB3UO56iBdPk7siQAQASD0BFfnSQDGQWLhbVM7jy2X1Z8B7OLPG3mlxfm53le7LYk817AmAVjtiyWBnUxXza5kNsWTu2EvjTGBDZIaACIAhJ5gKev1zjimBREA3WD5UHUNgCN9ep3jeXRuXTl9UKj2nFtG7zHxmQAcn175lUFZdaV4cjdm6QYO1vRoLwfrdbFwQPtdTBBcEhnVDPAYDZp8WTIWGSUW3jKTm5wjDAPPAjB9Gog3gvAQGAOZaEd4GEjkFTEjwgYNNAACdxZp8YhKiWEDXhGBBniAQcAOn3tkKQH2FmbHRQB97jQDb6Qt3EHBnQm79XP/bq0BeAzeCBgdTHAM5tbO9uFjADA8bgXBARvtbGAjMa/xiFsNUCUzvu9TVyoiHF0ftV8Sr95arHHeBqCjSNjiZMweJxYWASD0kOpM7s8MOkdLVDSsL80to/fEyl9kWiOXttnu6wCXiTUKIswtJc/cr76C1ostvki8hfcgR72jx/Q8JxmNTBYrBxP5BBBgPCZtN6vZrivHAb8YCIsTzTxso63ukeRfSPBoJnfu1CzvJTUCNpMElHuwtod7/t0OKfQcS0wQaLQNHs/ggwE83l8MOXUpf8l1naEMYyjgDSOmISAeBtBeYAwBMASOGgzIslhhLgLwqS6rU1sBJDLOWgDvELCKiVeBaSUTrwaMlSa8t8m0V88cTe/2G3nErG1PEBm0QJxPBICwHUQGWQucVqW09BPj8EKx0/QsF61VHSNMyxxFzKMYNArgvQAazqChBB7iKlUEEAj8vxTPkur7KTsA2IGBik98gJgAMDwQoBQSGacDoFUArwJ4JYFWMriFiFqUcpftYBUtD/LVzD1E10ZXZ32x9R9xtwDrYjFBsElknDcB6Liju3XEKmun2mNIBd0GtczG0qXYy/TUKHg0ksCj2OBRYBoNYCQ6Ny+JLwt+4qHzSGMLiFvIoxYGtRjELZ5htSTH4O0wVL+rmc+2M1itgZ4S168lY7Z8apQVAKEXGu1VgHUIgNKWYc4EAIFZoou38I7sOmOIjdEAjzY8Hg+iccuzqtwESrumap1nI2X2LuQXA8BeAPYC01Gd7sjwAMBTSGSRQ0a9DfAiAhoBXgrQUsOy3gzS54XcDs5EYtJ0vwXJ938RAELvxpD3KpgSeh6NI30XAMw0Nd0+Upn23sQ8lpliRFwOoByO2o3QuRTbmeMlyQuhJQLwaACjGTjpkwUqt/PzwnsA0iBKE3OGQYtNz2mcWV68zO9VA4PpKG0vZG++uIEIAKF3/FubtgAdCUDb9bbnLeeditvVeBCPY9B4IkzkrNrXNaxBxJ1hR+4IEfohuwPYHcxdyZfhGhYSWdWBjLOEmBd4BjUCtMhg1VgfK16qT4/jCF0fz1zmV6SrRQAIvWDE2/Yby4eq9QAG9f3o75vNP9OzXLTBdfaBgQM8MvYl5vEA9kGH2qVzaZQ+CTaCIGyZIgDjmGhcpy5mMEwkMs6HYLwBgxrZ895gE69t7LDfbBhPuV5mf0JWHaHpt6wZXR6REsABR9ZYQ0Ai4zwJ4DgdzzYMNzqrrLi5u3++spEjAyK5qOmZE5l4IhEmMmMigGLpKUHwDQUgQ8wLPMICg2mB0269PncCbeh2XMl2jAMbjZra91gyZp8o3SQrAELvZdoLYD0CgD3jSACbFQA1q3lAbr2aCOAgEB9AoAMAFQMbJnct3cusXhDyFrs7VwuASUyAVaLcRMZJg/k1GHiNPHp1/QBrQcMwatv84KejtIUswvPSRSIAhD4aTLoSLcM4CkAKAKqbeIhnukcQ85FEmOi0qgOJUPSJChEEIdCYAMaBaBwYFzABpW1KJTJOhpgXgPCCS/zi7LLIIhAxGEdqG9YeXpDuCMPcUgg8Nat5gNOqPgYQ0fD4NQy8SMAhAHYVawtBgSVA6eJ9AC8z+MsEGqzh+R1sWzumRlG7mFoEgNAHJDLOy+hM0oIgCEHm+WTMPlrMEHzkMqDwSDVZUhMEIfihSr7/iwAQ+hb2SASAIAjBR2KVCAChb4nAfAGflMgTBEEIaPr3IuZLYgYRAEIfUldOHzAjK5YQBCHAZFKjaI2YIRzIJsAAE2/hYiPnHsOEkwHvRICGi1UEQQg2vIzJ+BuBHymF9UwBXZssAkDQS02ad1Vwvwnikxg4HsBgsUpv45F4uiBOkyc2AvgngR+BZz9aX0GrxSQiAIRNmJztGE8wTjKAk5lxGOTTjCAIhYdHwOtgPOqa/MjsMfZrchuYCIB+OLlgmpJxDnKJzgLoLAKPEqMIn5s1bQRoHcAOAa1dc9KPuyanG4iQ88A5grEBABN4zadRFsiBsPma8B4cg7h1s/+JqRQG7C1MiAcamxSiYtBOnf/XG2iAIsyIgDCQOmPKjl3tLQXIBngwgAFd/wjCJ+lnKcD3MfN9qfLIq2IPEQAFnfQTWedgEFXC47NANEKMUngzHHQm6Y8Y+NhgfMTEHxMbHzPxRwDWEnidx8Y6w8BG1+MNMHmNqbxWtoo2dthovXs41hTsrIiZzluBHQfkMNBzOwa6llEKl3YkgwbAw0CDvMFgGsSEHZloJ2JvZ2LaySPsTMBO6PxnZ8gKWSE6xzKA7gP4vmTUfkVWBkQAFETAq25Wh7KHShCfKZv4CrCLCa7peWe5kcgzsvvZH2qW8A5K5Y5lMu4TMVCQo2oFEd0H4L76MutlEQMiAEJFPN1RYRjGJGa+QJJ+wfPzZMy+SszgP9UZ5wYGLhdLFLYYAGgus3dnqryoSewhAiCQJLK8G7NzDoEmAThILJLPmAEHtIVv2X3LIratiXLpSX6YnuWiVlbzAexdQD4lbJlXGTyXyL4nGaX3xRwiAPI702/hYij3ZGKeBOAbgAQIn1gLoAVACxFa2OMWg4wWj9wWkPFNePiVD21wDOJDZkUjr0t35HEVoCl3IBv0Evy42pz4+x74SYPNUQxvFDGNIgOjmDEKwCjIkV2/cAA8wURzYZmPiAAXAeArU7K5/V02agh8Drp2PAtaBvlSMJqYkCHmDIPSrmml55bRe5vtl0U8wrPUWwBK9ecCXFtfbtdKN+WfRMb5OYCf+PCqDaan9plZUdKyuf84qZl3j3iqwmOOMVGMgHJ0/jNaJgfaWAPQnxleXSoW+Y+YQwSAFqY1cmmb5ZwDohoEYom/YAqVrAWjEURvEXOGidJsqvTIFUUttceQ6mEieAKdxZN0859WxzqkYTzlZGTkn8pGjgy01asE7OtDxHw8GbW/2ZO/UjuPrWXDO0aRa5UTczkTxYh4PDP2BrCD9GCfRcRXDOI6Z6N9z9wJtEEsIgKg97OLbMc4YqMKQA13HkMSto8cgGYCGsFY5Bm0wGDVWB8taumLXb7xrJpEzHP8+B2u5x00p6LoDenS4DAlm9vfY/q3HzNtBp2fill398WzzlvOOxW3q/Ee8USCMa5LGOwHYKD06nazDqB7DPL+IJ/oRAD0fEaxkktKNzrnw6Bvg3GgWKTHIXIlmF5jA68bHr1Bpnpz3ZiilgYiV0vwb+SdPVs1AdjNhx93VTJm/1z6OHhUp51aJlzjw6ve7Siyxt49gj7WEn+YzYFLO0bDtfYB8T7EOADAAQD2kl7u+aoAiP8Iy75b9gqIANgqU5fylzxHXcSEiwHsKhbp1gB7h4AFxFjgGbTAMs1XZo6md30N/FlVx8wX+jBYFgxfZR3a008Tgj/UzGfbGaxeBTDBh1WAP6Ri1kV+/r54C+9o5NTeHvFEgzGRiSYCqIDUQugO7xNQb5B1+8wovS3mEAHwKYls7gDycBkTnY1Nyp0KX+BtAC8D+DcZWOCZ1uv5Ln4zJZ072CN6yYcgqEB8SDIaeU3cILjEM7n9CPQq9J8K8IhwZH3Ufimvv7eFd6QOdQAMHMDAoQQcCmCoeMIW6QD4HgZulU2D/VgA1DIbK7LqWAYuBXCSjIvPewYxMb/GwIvEtACkXqiPFS8NVB/OY2v5UPUqgP18GCm/TEbtK8UxwiDonZvB+IEPPvGmvdaaWHcgOUH6/dVNPMQz3YmGxxOZcASAr8pkb3MhDi96oBkbysz7dX2eFAEQMCobOVJqOVUg43KAy2QYbBkT3riZsaLFQW1fdcb5IQM3+fCqbGuJNaFhGLWJVwSfmtU8wGl1F/oyvom/n4xGfhNUW1Q1dexrGsZC8Yqtj28mviGy1p4bNDGnm37z7aiykSPVaVVVaruLQPQnSf7bRrFxemBnec08jIGrfXgVe4yLJPmHh7ohtJGJL0TnWVnN3kHXTs1yYDfnWWScIR6xTaLENMsZ7DTHM7lLK1dyiQiAAmHSQh4Yz+QuLbXVUiaeDfAY8fduTm4MBFYAwFW/hQ8FfwCqm11uPy3eEC5SUfsZgJI+vGqQYnVrUO3gUYDHcPAi3nAC3VrappZVp53a87Nc8JUdC/YTwPlZHhxhNR3AZZAd/ds9v3FNa+ScMbQiSI2qTqsTmPgx7T8eeCdXZI3XddxL0EvNEt7BcVUjfNgUx0SnpKLWI0H6/fHFbSPJtFrEE7ab98H4Tc6wfndXlNbJCkAIqGzkSHUmVxNhlQXwc0n+vROIpuucFqigvpoHeITf+TI4mC6W5B9e6sbQWhBd5stAYe/2SQt5YLAGr3WWeEGv2A2E6yOsWuJZ5/J4CxeLAAgotcxGdVpVlVpOhkF/BLB7P3DQLBi/IcITGsNIoJYQnVZ1DYFHaQ+eQEN9ufWAxMBwk4xa9wHwoR9puD1ABeuUCGtd/n8UwAyAlvQDN9qZGDeQ4yyOZ9WkWuaCyZsF8QmgOuN8jYFfwY/jYPnFJeA/YDzqmvzI7LLIAkD7krirDGvIli7g8ZPJ2Y7xBhuvQ3O5VwI+9mxrXGoU/VdSaAHEhyYewoZqhP6Lu3ImvP2CcHKmZhHv6VjqbV2TPAKOq4/Z/+iMv+2jPRgnE+gkAF9G4V98tIiJalNRqyHsP8QKc+MTmdwhDLqJgaML2NnWgPjvBOMRypmPzxpPH33+D6xX5tOltloLPReLmCY7ZwG4I9+GMGDc5ktwIf6hJP/Cob6CVldncpd3rQzqJOJ2+uhx+f7NjuVUAqQr+X9srbOe/dS+nfVBZgCYUbWYdzEt9wR43skgOh6FednROGK+N5FxnjWYfzSrPPKKrAD4yNSl/CVXOTcCVIXC3Mj4LoMeYOb7itZbz3XnbGoik7sboHN1NIaB51Ix+8v5NEg8qyqJ+V4fXvVCMmod3RcXFAnBoZbZWJ5Rz4NwuO53MejMVMy6P7+TI+cldFYF1PELZydjkfg2VyHms60Gqy8z6CyAT0dhfpZlgFLKMK8IwippQQuA2nlsLRvqXEygawtQWX5AzI97htEw8m3z8Z7Wm9ecIPN6GqByJZeUtjmLABqp+VWKmA+sL49I4ZQCZEpzx96eZ7wG7atIvFK12WPzdSVt1RIebrpqmbb4TnRaMmo91FMBtiKjDmdCJQOVBOxZYO61hsG1I1fZvwvTXSGh2cwwJeMcvWyoWkCgWwso+X9AzHOZ6JQRq6w968sjVamo9cj2ONCAnPk4AF3FashQKm87ikvb1JU+JH8w42ZJ/oXLrLKit9C5VK17XjXMLlY/zFtQ99S5Gid3G+2B5lM9nrwRefXl9gvJmH3pyKi1FzGOAnAbgNUF4l47EujW5UPVm9UZ52uyAtBHdG7gcW7WtbydB9YBdB+I54wos56vJfL66sGJjPMwgJO1JEfglVTMPsT3/s+0j2aYjQA0H8HhFarNHpevWZvgD51lgp1GHwRlm+mp8TMrSnw/h5/IOK8B2F/T4+9Pxuwz++phtczGiiXqy55HVQQ+A0AhFN9hBt8dUfYP68bRO7ICsJ3Es6qSDfVmASR/D8A/iGmyarOGJGPWlGTUfrYvk3+X32k77kTAwVOa28v8H0nmLfqTP8BkfFeSf+FTN4Q2Mhvf8+FVJa5h/dr/CVN7ucbkDxD1aYypJfLqy+x5qZiVYNv6EhOdQkADgDDX5CcCne9YanF1JlcjKwA9VemdR1j+AOCUkMebRUyYA8ua7ceu8qrFvItpqneg6xsn48pkuf1L32YyWed4sM4aB5/yQDJmS830fkQi4zzkR3whwvH1UftJ3wRAxrmKges0PT7HtvUlP64An9LIO7PtnAWiKmYcEWZfI8YTbFo1yTJaKQJg69M9SmScKSC6GeH9zr+Wie40PO9P+fienMg6j4FxgqbHL0zG7P38+B2VjRwptdVCABWaX7WRXTU+NbZkmaTF/kPXRrlG6L9PIltK1j6/jVKHT8KmEcA4TY9/OBmzT/V9VSOdmwAYNUx8fojzwhqAv5+MRZJBalRgPgHULOI9E1n1UOdNfeHrZAIWEPjbJY61VypqfTdvm8k8+ovGp09IZDvG+fEzBtnqUh+SP4hxtST//secMbSCCT/34VXR1s47SfSLmqaOfTUmfzC0xpYtUl8eWVhfbl3MtrUHE30LwD9C6HI7AlSfyDhPJJp5mAiATYhnVaVjqcXQtIFN82z/d67nTaiP2QfWxyJ1d4yn1nw2yLbMBwG0awsCbJzjhxhk4CofzLVw+GprBoR+SWStdQuAt3x41dU1i1j7sTeDDJ17pTYOcMyH89lfqVHUnopaDcmYfRwx78dEvwOwNmRudzw89UZ1Rp0ZhMbk9RNAvIWLyXFvAfiikHXiYgLfapXad9YNoY1Ba1x11nmAGadpkgDLklF7tM5COdXp3BwmmqTZTB4RjqyP2i9JKuy/VKedI5nwnO5YSMxz68sjVbqeX8tsLM86ywDSMrskoKE+Zn8raP3XdapjEkCXAhgbJt9jot8NgvkDvz4PBUoAVC1uj5mm+ReEqH4/EV70QDemysxHg1wpLpFWZ4P4Hm0zDeDLs2L2c1rans0dAKZXoX11iuqTMWuKpEAhkc3NBlOV5tcwMx+SKo+8qkXIdN6H8pS2xgegumE3xdzlAE5EeIrcvc6me3ZqTHE2Hy/PyyeA6ow60zTNf4ck+XcQ81zD8Papj9pHpqLWI0EvE2sPMh8BoO1ThKszWDLd6oNfrrOV+VNJfQIAmKb9I+hfSiYimgFm0jNsWOeK2foNJebjQe/HrkJDJ7PplqOzyNDGELjf/uSaC+IZdV7BrwB07ux2fwtwTQg65iMQZtiedUddOX0QtqBWncn9mUG6vtevs0utPfv680d1Vn2LmbVvNGLwZalYRL79C58STzvfJ4L+c/tElV1XFPcZkxbyQKtE/Re6TjQQz0lGI5PD1qeJLO9GnroYhEsY2Cno7WXQHzY45qUN4ylXcCsAUxp551JLPRGC5P8+Ma61TWt0MmpfF8bkDwAeGzoT6WCn1e3T40CVjRxhxi98MM2iyDr7DgjCJoxcbd0GwpvagzzjpulZLurLZ9rF7pnQeJyRPeMvYezTZJTery+3a4sdaziDL2Mg0FX5CPydQRH1z0SWdysoATClub3Ms9WLIBwTYPu/y4Qr7FJrZH25XVs3htYixAwyzMehcVmTmPv0M8DAiPoewNorDRLhe925XVHoX9QeQ8rzoL1CIIFHbWB1SZ8maI3L/wR8vEGZ/whz394xnlpTsciMQWSNIvC3Abwd2FUAxhFg96V4uqPCj/dp/wRQ3ewcwx7uA7BzQC2+nAjXr3fslJ9LL36QyORSAOlaunPJs4bXV1CvL/OY1My7W57KQH/9h/uSMbtS0p2wJeIZ5z4CdB/RWguyoskovd/bB03N8l4uq+XaJnNEM5NR68JC6uPpWS5aD2cKMa7QdWqiD/iICWemovYzOl9iaR1M2Vw1e/g9gEhADXwTbHtGchS1owAh0J0M6BIAJhvqPAA399oJPfc6H5J/G7v5u6EtH5yf5cFFrhODaZQzcwXAowEqJWAggB25a9mYOjeMrmFGK4g3MGgJQE2G52UAO11fQev7i83IsL4HT30DnTbSxQ7kubUALu7tgzyoC6BxJddgnltofdx17O6OykaeOch24gz6GYDdA9bMnYnxVCKbuyQZjfw+dCsAiaxzNRjXBrD/NxLhVsuwbgr7Mv+20H02GEBjMmbv3Ts/6RgHNhbqFqMEXF0fs39WyP1d3cRDYLrHeB6OIcIxnQm/T6y3hBnPgPDPiDLnBf2Gs95PXJxriFGr+TWuYXj7dV1RvP3jJ+O8CWBvLS1kXp6M2aOCfuqp1/3dwjsipy4nwiUABgRvIqcvdmkRAIm0cy0IVwfMjgqgevLMa/ti2To0zp12fkmEK3Q93zP4wNllkQXb3b6M83cCvq7TBgxqgW2OSxXgSs+URTzCs9QkAOdCYxnYz/EWgHtc05o7ZwytKDSbVq7kkoFtbiOBR2mO7I8no/Y3t39s5w4iolf0jRv8LBWzr0Y/IZHl3cDqpwCm6Z6QbEeivrE+Zl+h4bl9qhgpnlW3EHBZkIzHwJNg79JUeVET+hlTMx1jXRiLNLrm75Mxa9p2Ja+MOtEDP6p/9NBpyaj1UAHNWIrJcc7t2t9xFPJX0tsD8ByBZw8k+8/5rGjW98JZnUak73rtTSLwN5JR++/b81ers6qOmbV9nyfPraivKE7305g5A8BxAVsK+HWyzPphX67I9J0AYKbqrDuDwdMDZLJVxHRlfbk1B/2YRMZ5BcBBmh6/VrVZQ+dOoA09+Uu189haPlS9Ac3lOxl4MhWzjy+Efpy0kAeaJc5UAv0QwNCANe89YvzesqzfFMqnNT9WpwC81Rq19msgcnvyl6Y1cmmbrVYDGKSpXS8lY/bh/TluxrPqZGLvNoBGBkgF/HFE1JxWS+T1xdP6ZOZQy2wksu6sACX/dgZ+Zpdasf6e/DuToNaNPDvYJU6Pd9YvH+pMgf7a3a5peD8Ie//VrOYB1RnnKqtELSfQrQFM/gCwOxOucVzVnMg4P6lcySVht7sF7zIASvNr9h7Y7PR4o257xDlbY/IHqPA2//WUVNR6xC61xwP4BYCArG7xt5c3u3+sZe6T3N0nD1ne7M4AOBGMZIe/EdzxqZh9dRAv6skHnmvfrdWBiab25I93JgfSXoqXmP7Y201WQZiFOK1OIwPXAdglBE3eFcDPS9tUJpFVZ4XZ9jNjRYsZNNMHP72uZjX3aPMZc8/GXA/Jucq+VyInUDeENiZj9k8Nw90bhGCUQ2aeuiyr+qRqZa8FQDzrXA7m7wbALGsI/O1UzD6pPla8VFz3f8wZSx+SRudlxhGJbEe3N6CVtqnvA9hL889eb9jmdWHts6lNbaMSGecRYn44WEuQ3WYvMDck0s6DUxbxiLD2A5F5NfTfEzDUaVXdjqFTmjv2BnCoxknUI3PG0ocSOf/HrLLi5mTU/iYTfQtA3m1DwGXxtPP9vAqAeFqdQ4zrA9A/j7ls7V0fi9SJq25hFYBprl6HNLp1s955y3knAvxYlr9u5mh6N5Sz/ow6wzWs1wCcFHrHI5zqWerNREadG8bmdxXr8SPG/bhqMXdrhcfzDK2FeYio3y//b4lU1Gpg29obwAN5H1qEm+NZ1asqkNstAOJZ5ytEnEL+diB/OutPxuwT55TTKnHPLbPBMR8FoO1eA2ZM7k6N86J2dZX+izloaSlZvw1d4m/h4kTGmUHgvwLYsYDcbxDAd1enc3N6utQdBFod61aAmjW/ZkfDVJdv6w91jTGdN8d92JoL/s1/eRUBo+i/yZh9RtdqQD7viiFinlmdcb7mqwCIL+7YhxgPAijK44//O9vWWJn1d4+G8ZQj0J81vmKXDdj6BUFTFvEIEKbpHxa4PGxH0qY2tY2Co/4N4JJC9UEmmuS0qhfD9kmgYTzlmHClfrfF9EQzb7Vo13p2z0TnPgtd3FVoJdE1rwbsA+CpPDYjwkDD5GzHeF8EQHUTDzIs4z7oL926JRQxrh0Rtb6ZGkX/FTfsgeE8V+uGJmbe6sYkNp2faReNjH8ly8y/hqlfJmc7xruG9TwB+/YDN9zPtdRL1enchLAFewDPa35NMTx3q9VTaRtjrNcihLleImUPVwOi1vEMvgxAvi4Z29Fg86HzszxYuwBgw/kDM2J5+qFvM+PY+nK7tq/OQfYn5lQUvQHgVY2v+Gp1pn2z5Wermjr2ZaLzNf9Ej5gvDVPp0ng2d6jBxrMI5tE+XTPdPZnomXjaOSpUKxjMPwCg2be4qmuT3xd9ZUl7FISvaHz5y/XlkYUSKXvq0MSpWGSGAXwNQJ4+RfOYiOf8SasASGRzFwF0Xl5+HvA317X2S5Xbz4vH9Sb4ss5VAINhfntz/8E0jRugfb8Iz62viMwPS19Up9UJxDQP4Tje1+ezFiL8Pd7sfCM0s73yyKtgvkvza0zPMza76ZCUeRE03t9CxDMhbDezYvZzNlv75e24ING34ulcjzaIdjsgxxd37AOmX+fJtreNjFqnyNGU3lPs2HcD0Hm725R4Cxd/5l9knKPBOEHzT2uDYV8Vln5IZHKHMHEDgOJ+7I4l5OH+yU3OEWFpsAv7CgAbNL/m5Opm55hN/0XlSi4BabvZEwBa4crZ/95SV04fJMusEylPF+ER0W09+bzWLQEwaSEPJNO4F4Df1b1yBE4kY/alsuTfN9wxnlqZSedA34Vy7tn/m5QzecBN2n8Y41fJMloZhj7o3LBDj0HvlbOhEQGGgYd6Ukcin3SdNvqNdnf28ItN//egduc8ADtrTB1396drnzVnYa4vt2sBrgbg94bKYhh0b3UTd6tKZLcEgFni3gygwucf8qEBHFcfi6TEo/oWw+BZegcAf7qTPdHsngLgEM0/6f2cYf06DLZPNPMwg42/6w3moWMXMD1RleZQ7IMgz7oJwHuaX3NYIqP+VweC6SK9v8n7k7hh35KMRZIgfB0+Fw5iRoxNt1u1K7YpAKqbcgcSuMZn22UNwz10Vsx+Ttyo76mP2i8B0LnZ54B4OncQmAnMtT54/HV3RWld0O1eO48tYvVn9KMNfz1IQcNMUvfVzGc78OOngtYzWH9xIOLra5mN6qxzGAMTtQ0f4I0w7Z0JlQiI2s+y6R7mQx2Jz8fEixLZ3AG9EgC1zAYbdDv8LfbT5LJ1zKyy4mZxH42xpbOIk8YXGNMSGfdbAPbT6uegllZlh6IWxPKh6pfMOEK8b4scmhukQlG+eYNj/x6gJXqDOPZZkXVP95gv1vkag1lqqWgkNaY4a1rmkQD8vJfEBNMftnVp0Fb/4/KscyH0L99uyn9A1tFS1U8/StlzAbRrFBjnssHagzkxfhyGwiXVaXUC/CmBHHJhisvjWXVy0NvZMJ5yRLhG/0SOf0GgMzW+oq292L5bPE8vM0fTu8qwvgq9K6+f56DlGad6q+NtS/9hSiPv7NkqDb1VpzZtyALlWsfLTn//SGRydwN0bljbT8CC+qh1UNDP/dekeVeH1GK/xlIB8J7hWGNnjaePgtzIWmZjeVYtgOZVLr0CmufWl0eqxOX84bzlvFOkQz1BwME+vfIjm63yunL6oEcrAJ7t/tLHgPVaB1nHSvL3FwP0h5D/hCvCUPQnB/cGSf49YnfPdq8PeiNriTwQrtC8BqA5CNDvxd384+4R9DFs63gA//HplTs75P68RysAiWYeBk8tAaB9Qw6DWmCbh0tZ33ytAjhvAtg7bO1m4MlUzD4+6O2cks4d7BG9hPxemhVGPCY+IhWNvBz4MZR1ngbj2BDa+D/JmL2/uJr/1CziPR3TeQlEftyL4bimVTZnDK3o1goAee4P/Uj+AD4Eu1LTP58Q3xHCVjMR/zjojaxkNj2iP0ry3865KdPvKpnNwA8hly/XP1XX0G7i28XN8kPdOHrHJD4BgB+fuWxTqcs2O8g+/y+qFvMu3FnAQDftnodTU+VFTeIO+aMkZ88FsDZcs3++OxmNvBb0dg7KOpMQ4u/DAeCAQc3uOUFvZH1FZD6Iw1ZFb42z0b5HXCx/zIwVLQb4mwA26ld7qKlJ867bFACmoS6BLxXKeNrsCvtFcYP8csd4agXR3BA1OcfkXRP0RtYyGwz6oXhYL6ME80+2dZQpCJiu+2P4X/WtF7N/1M+dQBvEw/JLMhb5NzNf5sOrBuYMdfFWBcCkhTzQj/vaCXxPMhZJSvcHJHixewfCsoRJVDc7Wrwk6M1c0eyeBWCceFevGbss654W+NlcRUkLg8JylS4r5f5RXCsYpMojfwLzndpDJ+OSaY1cukUBYA5wJkP/buV0sWNfKN0eoOAVK1oMwrwQNLXd9cwbQjJzvVw8q88mDFeBmYLeTsMzfwagLQQmfXLO2OKMeFaAfJztaQCyml+zc1vEmbRFAQCmszU3IOd63rfuGE+t0uVBc0AKw2bA28NQJKrrnvsDxKv6jP0SS9RhQW9kfQWtBhD4qnpM9DtxqcD5znqD+GwAjubOn7xZARBv4T0ImsuUEn49p6LoDenu4DF8lfkQgLcD3MRWZVi/CoWYMkgKq/R13PJoUjiUtPULAAGe4PCKDWXmY+JRwWNWNPI6gBmaX3NIPN1R8QUBQDnnLACmTsdTG61fSDcHk9pjSFGwZy+3zi2j94Jux3gLF4P5LPGovsUAnz09y0VBb2cySu8D2O7VNN0bcYjo9w1ErnhUMClxrGt1T8QMGOd8QQCA6FtaHY+Ny2TXabDxbOtPCOZO5jUdRdYtoTBizj0NwI7iTX08fQB22sDuSWFoq+taNwHYrtspNW906GBYs8Sbgssd46mVib6vdSwRTvmMAKhZxHtC7/L/C/Xl1gPSvcEmNYr+S8x/CWDTfn33CPo4DDYk4jPFk7RJ1FCsrMwZSx+CcWsAvfOurhUKIchxOGo1gPEvja/Yb2qW9/pUACjLORkaq5UZoBukW0My0zJ6Gri0nx78gDxrRjiMxwTgK+JFulYB6NgwnAYAANuyboE/Vd66vzLhuTPEi8ISh7XmTHI95xufCgAPOFrfoMUbs6Ky6SQsdFXYe7YHvqS7STfWV9D6MNgunnUmQC790cnuU5bkxoehoXVjaC0zfh2gJv1DNmCHaBWgzHwUwFv6JACO/FQA6Nz9T0S/CsONbcJnOu03AZny/dcutcJzVwHTseI8evG88NjYbbdmAAjExlXmgIxpobsxmMF0s74XGEcAgDF1KX8JoJGa3rLBHmjeL70ZLkaUmY8AlPdqe0x8fd0Q2hiaMatxJU341MpfCUtL506gDcy4MQBNSY+MmU+I74QLe5DZgO3cTNqN6FpWk+ZdDcdR2q6CJeCxMAVwoZNaIo/h5ft74WrY9p9Cptr3Fu/RbWKMD1N7I4OsPwB4N79G4xm1RJ54T7ioG0IbQfygrufnDLW3YRBrG1BMdK90Yzhx2+x65HETExH/KjWK2sNir8pGjgA8QjxHL8wYXTOf7bC0t2sClLcjrAR8rDbac8RzwurvxkManz7OIDbKdeWQHMwnpQvDSVfNhnxdbvJBcc6eGSZ7lUZyZQAs8RztWKq0Y3SYGqzarN8ByMvxOyb8QeqvhBjb/CcALas3BGOswdR5HlADb9wVpXXSg+HFJGsGdNem3vys5aaw3RdBnlkuHuOXY1qhsnVXAs7HJzXHRIg20QpfIDWK1oDQqGl5YagBwhAtzwYtlO4LNzOj9DaY/S7g9CE86w9hs5VH3l7iMX4Z2xsWtibnyPotAb4Ws2LwvTOj9LY4TNj9nXXl0iEGmL+kZUbELNdNFgBswO/jQ7eG5dz/Zw1Fg8RbfIqHBpWGrc13RWmdR/6uAhheEKsRCj1PptSkaQVgD4OgZzARgn9tq7BtUtHIywCe9+l1a9m2bg/lGDVQKt7ik60ZoRRbEcO6FcAaX2wEPF1fEZkv3lIQ07DVmoTFQIMBLTdsMQWrDKbQi5kEyJezzMS4NTWK1oTTSrIC4COhtHXdGFpLBF++yXsIRP0BoU9yqfGBpkeXGNAkAAjcLl1XGHSWcqYPtL6E4FoI5+y/c5RioHiKiK1toZR1Cwiar+OlD1JR6x/iJ4WiALTl0mIDmo4YMMGUnisMJi3BbgAP1pxAzZyhQltIhwhKPMU3cmFtuGWq/cHaY+OgRLPcSVEoGEy6jhe7BgAt6oKZZEZUIFieugRARHsSBa4KsUxfL54itt62zsVPfXhLEXnqYvGTAvF2Q9vqYps2AQDy9pCuCz/VTTyIgGk+RcdjJzc5R4TSUB5EAPgFhdPWUzLO0QC+7MtQInx30kKWSVghCAD29tT06HYDwIdaxijTKOm6AsB0pjCwk+5p0aevIz9mSFoCbqs4i6wAbMPNr/bxdbvYxU5cfCX8GKTtsr6PDDDe0eTsY6Xrwk0ls8lsfNeHGd2mifQbU9K5g8MnAFhOvfi1AMD+FtTpC+LZ3KEMfNVfn6RLa5kN8Zhw4zG07I0iYLXBpOeMIQGHgJmk+8LLwKx7KsBjfHd4otCtAphMzeIx/uB6lA3dLM6ja/Lw2uiyZvdE8ZgQw0wEHKhp0rLKIFCLpqbvOmVJbrz0YIhnWuDv5enVJ1c35Q4Mla0sKy0e4w9FFC5bJ7K5A5hwfF780svbGBb6gHhTbm8AO2uaaS0zGLRYm1Jn40zpwnDSlYCPzJvwNejHYbLXzNH0Lnyq8tbP+aiuXHNNir6fatXiMx+6fFXxx8Qzuf3EbUI6CTOMk/Q9mxoNg71GbS9gnCVdGE48A5fluQmnxxd37BMys8kqgNj4M0zJ5vYHcFI+20DI+1gWthcDZ2jzC3IXGeuVvRi6jgICe0/NdMhmwNDN/nkIgSrzLX5hGteEynBEr4r3aOeVUAlppmvzNvv/n2OeW7OI9xTXCRdTMx1jwdD1KXSjuSaSNhrGU441DiqXzGnSlSGb/ZOaDh8K/3Rj5nJGPJ07KCx2Y8Y88R7tIis0Nu76jHZSAJoSyVnqInGecKFgXqIvWOHfdQeSYwCAQXhBY1ScGm9hKQoUEmpW8wAiXBiUcA+i0KwCmI75DDSV1hY65xMdEfO50Ahpg36R/9n/p2L6O5UruURcKCSz/6X8JQJP1paWu3K+AQDs4mmNv6WYHClLGRrV2epUAdglMBM+4MTqrHNYGGw3azx9BGCheJGuSQsW3D2CQlEDIJ52jiLg6wFq0m6lG53zxYtConRddSkAbYKNGc9+KgBGvGM9B+B9jb/nuzVplsspAh9hmRh0aQAj/89CY0PCE+JI2vh7aNyAAuizRJdJbZbgk8jybmCt5dfXFq23nvtUANQeQwqg+zW+cEfHcH8pXRtwx2tWXwdQEcCZ31fjWecr4bCid6d4ki5H8O4OQzOrM87X4FPN/x4yPpFWx4gjBX0e5t4EYAd9QpCfqDuQnE8FQOfEhe/T/Kuq49ncodK9QfY8BHbDpgH8PAwmTEaLFhGwQJypz/l3qryoKRzDCNf58I7t+3sGZFN2gJnc5Byh89t/Z6437t8krnYyfJX1DPR+BjCI6Y5KZlO6OXhULeHhAAJbNpQZRySyzvFhsKUHnise1deTlnDYdEpGnQhA+54V2v6/d+rULO8lHhU8auexRQbugN6No2vXF5uPfEEAdH0GeEDzb9y/NKOulq4O4AxbqYsABFqcEeMXYfiGSWTfDX21NfojbRbsvwR/6s/kgYN+asVSrGrEpYLH8r3UdQTsqzk4NTQMo7YvCICuuUu9/uiIn05OO1+V7g4O07NcRIQpgY+vwMTqZvfkoLczGaX3AUqKZ/VVyKCZYSj/W51xTwMQ+LoVxLiwspEj4lkB8p2s83UwLtceQz2v7jMTv88Erljk3wCe0T3ZNAh3S2Wq4NAKtxLAbmFoq8f8szBcceqa5g0AcuJdvcYhZf466I2sZDaZ+LpQWJSwx0DLPUNcKxhMXcpfYg+zvzgh73P+kSqPvLpFAQAAbOBGH37z7o6t7qyZz7Z0fxCm1vzd8MwGse+yZjfw55nnjKEVAP9ZnKu3HU6zZ42j5UFvZmnWqQL03Nuux6wsmwEDQM18tl2l7gFBe7E8Bm76wmz88/8iVWY/AeA1/UkHx+YGO0k5l5pfui4rOSRUOcHzfjY9y0WBXwVwvesBOOJl203Og7oh6I2Mt3AxgNqQ2faorrEv5G/iRbnBbh2Ar/jwtv+kotY/tikAutr1K39mc3R+PKuuFU/IY5LyjPBVaSQa0Qon8DOYOWOLMwB+I162vd2Mm2dHi5cEvp2O+i5Aw8NmX4+Nb4uX5Y9Es/oFgeO+aA2i60HEX8zBm6GS2SzNummAx/gjhLgmVR75k7iE7zOXHclRqwAMCF1yAD5uL7LGBL00bM1qHuC0Oo0AjRSP61FUWKHa7HFzJ9CGEIyhZgSofHYP2NhRZO0VlvLKhUR1JvcdBv3ep9dlW6PW2AYit1srAA1ELgM/8k/p0x3xtDpH3MJncqo6jMkfABjYqTin/i/o7awbQhsZxg/E2XoaE4zpQU/+AGA46oqQJn8AGBDpcC4Qb/NZNGbUeQy63bdYyfSjzSX/LQoAAEjFrPsBPOZTGy0ivjORySXEPfwMstqP/im9jo3vhaGoSSpm3c/AX8Xjut2x99ZHrYeD3syqNA9lYLrWMap5DBFIagL4nPwJPBv+1Vz5e6rcenCLAnar6tZwL4V/BU1MgGYl0rnvipvopzrtHAlgnMZXLAZRSvPPKHHZvSoUBretqQxqEc/bZkpaYlt2KJKSSe510LyC5oFmAkhrfMXeiUzuEPE7H5J/OnchdVYJtXx6ZYfrupdsNcdv7T/OKituZuBXfo5+EN2WyOQuEXfRPMkinqr5+be7hvkzAB2af8mURLZjXNDtnRpFa8De2ZDaAFsNWJ7hnV03htYGP5h3VABcpfk17WSY1zNY77diMqaK6+me+ecuJaI/Qv9Z/01iMH7ZtRF5+wQAAGwosX4J0FJfRQBoRiLjzAhDwZcwUrOEdwCoUuMrWh3Yd84ZQytApHtzpwk2QnFdcKo88iqDfyQeuIWBz/yD2WWRUFykRGTcqHsmx8AfkmW0MmLaKQD69kMwn3N+lgeLB2qxLVWnnVoC3Qq9Nf4/76FLYFnbrOmzzQTbMIza0Fk0gn023SXLM+r+SQt5oHhR3+J4znnQunRJc++K0joAsB3zegBtmn/S6dVZ57Aw2D4Vi8xg4Fbxws8nf7qjvjzyuzC0dXKTcwSAUzS/ZgPszgDeuSJCd2l8V6ntOWeLF/Yt0xq5NJFVDzLB7/shPI/526lRtM3P992aYSej9t/h76eAT9YCTjVL1L+6bqoT+i7Yat38ZxjuHZ/8/3Xj6B1mzNA/ecRNYSkqlYpa3w/L7Xb+DHO+Z3jMnB6KxjKTYfgSC29NjaL//s/BvTv0rmjQheKJfUd1Ew9pt9UzPgjFzfHL2eX2092K1d19or3O+imAl/wPDtjXdNVLslGlb6hq6tiXgYkaX/HMrLKitz7zbyLWjQA+1PzTjow3u2eFI+MRW+vtKQD+Ltkf/xxIdryWyAtDcxNZ9xzov+73A9u0PiMy6ssjC4nwosZ3HhTP5PaTCNkHyT/rHOYZar7mOLslXhixyqrt9mStu3+w7kByYFhn+xDIN8cQgF6oTju1si+gd1hkaq3+xURfmKmkRtEaYvxS/+wMN4ahRPAn40m1WWcS44l+7I6PqY3WKb+NUkcYGttZ8te73gd9+IvNbYRkpt/pfa8xBUIv4g9TPJO7lBnPEOD7ZXcEfGwo64LaY6jbR0d7lEyTZbTSAE2G//sBAMBiwjXLs+rBqsW8i3hbz6lcySVMfJ7GV7wbWWs+uLn/4EWs3wG8Qu8A4FGtrC4NS3/MnUAbhq+2Tgaovt85I/Od9jrrtDAU+/nUv3Lqe/orOvKygbA3u+u/1TH/CuB9jX1yQc1qHgChx1Qt5l3iWfVI12a/SF5GFFGipxdn9Xg2PStm/Y0or/XNTzZN5/WujThCDyjd6H4LwI4aXzG77kDa7OU3qVHUDjau9uFn/jTewnuEpU9qjyGVjJpTOR97bPLHbSNi9uQt+UoQmdTMu4Nwhf7Zv/HTLa2INIynHBF07h3Z0dkg1wT3lOq0c6Rpqv8QcGLe9DRwczJqPdTTv7ddy+nry6wfAXggj1p8mGHgmeq0UytXCvfASYirdT7edd1ZW/sDrTHzThDe1PwzB8FxrwlVxxBxKmb/iJgmQ+dxr/zTBuYLkzH70rB88/8Ey3N/BkD3UbmFw8vMrV4hbbA3U/M8Uj4DdJPKRo7EM851TJgHIJ8VSe8bGbW2S5xu967peAsXk6OeAnBknvvhLfI4UV8RmS8uuZX+Wtw2kkxrKfSdRX02GbO/sq0/NCWjTvTAj2r+uS673v6psUVvhq6f0h0VZBj3grFPgbngYsPwvvWFDaIhIJHtGAc2FkJ3BTfCN7pOXG19xpl1XmCGrhVQNj01ZmZFiVSt3OqsPzeBiZIA8n2l8vNsW1/vzpG/PlsBADqXdF3XOg1AU54NsDcb9FJ1xrkhLBvA8jOFsSZDZyEKom7NTGbFrL+B8E/Nv9Yky7g1jN2UKi9qsgdahwJUh/zstelrPIB+31piTQxj8u+cFBu/gf7yrc92J/l3NUjnKgC5hnW+BMzNUzOf7XjWuZyJXg1A8l9kONZp25v8eyUAAGDOWPrQ9NQ3wfhvvtMbA5e3Qr1a3ZQ7UNx0sx2tc/PfWnugeX+32+Lxj7UnN8ax1Wl1Qhj7qm4IbUzGrG+TxwcDeDXEbrcQBo5KxqxpDcOoLYw/YEpGnUjA17VrDOJuL+GuL7H/AmCNxvZUhaWmhp8kMrlDnMHqdWLcACDfn55Xu6Z1wqzx9FEv80LvmFlR0gKDTwSQ//rdjH3YoJfjGfX7KY28s7hsJ9Vp50hmxDTO/ufWDaGN3f3js8ojrzBwv3Z3IL4lzHtE6isi80essg4n4u8FYnx1nzUMvqQ1ak1Mltn/Cqv9a+ex5YFv1P4i4ntT0cjL3f3jDcOojUH3aGxRNN7sSN2VT9TQYt4lkVF/BOhfAMbnuz0EfEzM35wzhnp9qqpPztQno5HXQHwsgA8C0F8mgb/DtmqOZ3KXVjKb/d2BmWiS3umLN6vHjue5P4Hmq04BVKhBTqivO609hlR9NHIredYw7tyF/mGAm/shMa7tKLJGp2KR327pDvKwsGKI820fAr7DhtfjGy2JPK13bBAbVejn1DIb1WlVZZpqMcA18PEin60lf4/5+PryyMI+el4fLpFkO8YxG//IRxGErfAaDEwP80ykN3Rt1nwH+o7/vZqM2Qdv38qE+h133jOhk49stsrryumDQujPaY1c2m6rixi4FMDQgDRrFYBbSxzrD3eMp9ZCsPN5y3mnog6VAbCr5lfdlozZ21W7IpFxFgA4QNe4KSVrSFiKNPU1k5tzEw2PbgdwaICa9R673tf6cnNznyqaZLRoEZH3NQbeCZDRDoCH5+MZlUw087D+5siUc0+F1rP/PGu726bMqwB8pNkEOyu41xZKf94xnlrrY/avRkSt4cQ4qmuzYD6SbjsBDUx0yohV1shkzL65UJI/ABR1uL/QnfwJ+Nh1reu2e+TR9o+97oyb9eyeiH5GopmHxTMqaXj0SsCS/2pm78t9fbJJy0aPqU1to5RhP03gUQHr3xxAKWWYV80to/f6xQpAxnlUY4GKthxZe3xy8992zmL+D/qL4LgMPjAVi/ynEPt4WiOXbrTdUwAcR+wdA6IRerQeLwcZ/wTwVIljPlJICX9TpmRz+3tMrwLQ+vmQGT9Ildu3bPfYbuEdu1b3ivU0EA8ly+3T+kOcnNLIO7OtfsTAJQBKgtU6XmEY3ldnlRU3axChmhJP57nzxwFUBLC/1xDhRmugdVtPNq+FjUnNvLvlqVXQdoSJ707GIr06MlTZyJFSW70FIKp1tkV4sb7MOgpEjAJncrZ9jOEZx7Bh7EfM5QDHABrWg/HOAK8EKM1EGQPe62BvXn2seGnBZwJmimfVMwQcrfdFtLSUzHG9XWJPpHN/AdG3NDXSAVlDk1F6v1C7u2Y1D3DWq0tB+BH0VkndXprYVSekxpYs0+KFOlt+3nLeqbhDNTDw1YD2/ypmvjay3k6FqSxpt4NDNvc9MN2i6/ls4IRUmd3ry2yqM+pMBt+n2x5EdEF91LoL/ZCa1TwgtzY3BhYNNJhKPaKdiL1SAGAyWg3mjz3iVpO41RwQWVrIwnjrY0ZdAB+uaiamM+rLrV5XU9VdWIvBl6Rikd8W3HiYz7Ya7CQYdA2AIQFt5j/YtipTo2iNNj/U/Qtq57G1bC/3VmK+OMCqfzkTfgPb/mNviioEL5g5r4Khqy7C6taoNbyvdnonMs5zAI7SbJLVJY5VXqhL10IvhWgTD/IMlfZhE3O3qmZ2N74uH6reBvAlTW19KRmzDy+UPq5s5Mggyz2HCVcBXBbYhhLNtNea03RPTLUfa6g9hlQqan2XwZcBcANq7BEEupUctSyedS4vhBuxJmfbx2hM/mDgrr485mUQXwpAd334Ie22+qmkOmGzPm2oq31I/h55/H99GV/BuFtjew+NL24bGfa+nZ7loupMrqbUVkuYeHaAk7/LhCuSUetCP1alfTvXmIpFZrCBkwCsC7CffIkYNzitall12qmtWcI7hNXhDTbP1eumXp8uk86KRl4H8Z3agzzwveqm9nJJd8KmxJe0RwFM1+9/NKev7y0xDK2fLAiWdXZY+3VaI5fGM7lL17NqYdAfkd9Le7ZFKxGdkYraN/r1Ql8LG6TK7CdA3mEAGgPuN7sx4RrHVUsSWef66iYeEkLf1zloX9Nx0Y7r2VdC/214ETbMgvumKfQyECrzNgC67xJpI8Ps8yuxZ0UjrzPwhjYFwAidAKhK89B42vllm62WE+jWgNWm2ZzMepPZO6g+aj3sq9/7/TuT0aJFbFsHArgtBH60Cxg/ZkMtq84491ZnncPC4PxTMx1jAeytbxbDc3Q8d045rSLGzT6Y6Lh4Vp0saU8AgOq0Op0J39A++yfcmCyjlXryB3SuAuzfFVMCTyKbO6A6nZtjkmqhzsqZgS8JT8xz7YHWoanyIt8v1stLacPUKGpPxuxLCXQWwlHj3Gagkhn/qs4486vTqqp2HltBbayCoXP533EN+8/aHt5u/QqdleU0Dzr8Jt7CxRD6NZUruYTJu8WHV61yN1raxK2trLugcY+VS0ZlUPuwltmIZ9XJiYzzFJgWdJU+D8MdIOsZdH59eaQqX6du8lrbuD5m/ZU89xAAC8MSMBiYyMSzlw9109UZ54eJLO8WtDYapHXJ7gmdRZTmTqANILrCh54cA0ddKSmwfzOoXf0UoJH6p3l0xdwJpO3zVt04eocYT2kMfIH7DDCpmXdPZJwfLc86S4j5YQBfC5Hrvc6mOzEVs+7OZyMCceVjvIWLDce9icEXIwAXLvSQDgI/AIPq6sdYz+S70EwimzsATAv0xTE6uz5q3as3NzNVN6vnmXGE9r7z3An1FcVpSYX9j6mZjrEujP8AiOjN/f4UoarOqvOZ9W2kdT1vwpyKojfy2mnMlEirY2ByDZhO1913GvAA/JZt64ogHDkPxDJ2lyEumdzk/MU0Ua/16tq+p4hB58DDOYmsynLWmUWw6vNVPYuZztGo6jY4G82/+TBbYsrmpjO0l2MtYsP8I5iP6Q8VAoXPDhS3Wd0O1p5APLh8mR/+5Ww0H7RK1AYAA7UkC9M4Gxo3G25jkrij4Tjf4qyaDgN7gymETkdLyeCp9WX2vMC0KGgmmrSQB1ol6noA3w3hasCnM0uA7wfR7NYy6x++XYvKTImss1TXkiaD70rFIhf4Nugz6vcE/o5+vdF/KwT2V6ozuTiDkj6E2N8nY9Y0/36Xcy8Dmr7X09Jk1CzzSyxXMpulzeprxBxn0OnQf0pDnwhkzLAHWT8NWoXNwMqoRLNzODzUAwj1mW0G3iGggRgN9eX2C1ptlskdAtDLGhPlqX4eU6lazLuYpkoD2EXzq97tKLLG3j2CPpbUWPhMaeSdPVs1AdC9f+dD17XK54ylD/0TAHrLansGHzi7LLJA52+YnO0Yb3pGJYPj2i628i/FLgHxlGTUfjaIrQvsDDtZZv/LLrUOAOM3AFRou7/z/OklTHg+kXXeSGSc/6tKs6Z73OkMjT9lzUCYf/fTdnPG0ocgvsqHV32p6/pXoR/gRdwbfUj+APgnfiZ/APBs82/QWGzN8Oh0LWI/zUOrM84PExnnTYONt5hwTciTvwJwc2uJuU9Qk3+gVwA+4xxNHfuahnE79NeK9wsXwD+Z+B4zZz84azx91DcrAE6TvhUTqk/GrCl+G6qW2VjerP6ts6zxJ7GTCEfWR+2XJEUW8Ow/nTvYI3rJh8nP661R6yDfPv9tGgfSubkg0vWpbnEyZo/rk7i+mHexLOc0ZjoHwLEI7yffz/OMYXjTZ5UVvRWCCWp4iGfVycTe77quNi0UXCK87DE3WJZ9z8zR9O52Bbbmjr09z3hTm6MQjq+P2k/mw0Bdn4Ne0O6vhDfttdbEQrwZUvj04pxXAeyne+rPjC+nyu3n8zJeMuokgB/R9+O8sdtbtGZKI+/MlnsSE1cC+DrCt4t/y3YB3jGYrqiPmXPDsqk4VIorFbUeUW32WGJcC6CjQPzGZMYRBLrVVWpVddZ5IZ7JXRpv4T165HyecbrGNn4w/G3rn/kyULLM/heD7/ZhBO/j7OB8V1JlYbJiqPqeD8kfIJ6br+QPAPY68+8AtH16MAzjtJ4m/eq0qkpknEc8W/238zIenFRAyd8BcJtDVkV9uTUnTCeKKKwWT2Q7xoGNGQhX8YcerQyA8CwzP2zAe6Q+Vrx066rfeQ3A/prcxNedzJsj3sJ7kKPSAAZrftV6k6xxM6P0tqTMwiHRzMPgqUUASnX7D3lWRX0Frc5vfFR/AvNUTTPdV1Ix+5Ct/ZnJ2fYxJoyT2aNTQDgaeo/z5nPW/yTYuzQfZXz7tQD4hOqM8zUGbgRwQGGHMFoK8KMEPGKts57ddJk6vrhtJJnWUm39SfhKEDayJDLOj9DZ17oH9d9SMfskSZsFJADSzoMgnKrddxg/SJXbt+T793bFxae0DRHDGrHpvQaVzOaAJc5+pksng3ASAxML3KXeAujHyZj1aKizSmHIMKZ4s3sWMa4P8D3PfclHBDwNpkcty3xIeU6CmX6jaaj/d0TMGlpL5OX7R1c2cqTUVq8DGKd9YPhR8VDwSTiqc+HHJyTgLXuddUAQ9pBUMpulWfUOdJ12YJ6u2u2kOcA9lhgngfkUEPYoeGdiXk6E64dH7ZlBiIkiADahZj7barCTYKZr+4UzduIS0MaaljYZ9IdUzLooKD82nnaOIsKz2n2X8V9DWeP76oSGkB+6akksArC7/mkIjk1F7WcCJHxmAVytKXV8BHApCmgT3zb4gAk3D4J162+jVCj7zwrm2AUAoO5AcupjkboSZUWZUAtgTT9wTJM1ftc0iB8I0o/t3Fyl5zriz0njPTzbvRlCuAeH4dzqQ/IHM9UHKfl3oXHs8s79JPl/BOCnqs0amYraNxZS8i+4FYAvrAgs4R0cV30XwGUAdpVw2GPWtDrWlxrGUy5IjUpkeTewaoL+u76ZgK/Xx+x/iCuEj3iz8w3y8Lgfs0PXtSr8Lvqzzd/fwsXkqPcADBJv6DHvE+EWuNbv6itofaH+SOoPPTlpIQ80S5ypBPohgKHi292e1tyZLI9MCmRwT+cuJKI6H4ywrMSx97ljPLWKQ4RI/K/mAU6r+ybAo33wkepkLJIMoh0S6dxfQPQt8Yhu8x4TbokMtH4btLr9OjD6Q4/OnUAbUrHIjNYSKwrm6QCvFD/vzvTXeCCobUvF7JlEeNEHjTyyLaJqxRvChdOqfulP8scLyaidCuwYRnDHcMAstYKYv8u2NSIVtW/sD8m/3wiAT2gYRm3J8sjtrY5dRsRTAbwljr+FtAc4MHjjtEYuDWYDiYm876CzCIfuKPq96qxzmHhFOOi8FAsX+/Aq5XrexUEt/DKtkUstYB04vHep+BDo3mTiKa2OHa0vj/yu62r6/hTn+zfVaedIEC5h4AwUaLGKXuICSBPzAhBecIlfHFUWWRyUIzCJjPMrAP/nR6CQMsHBp+uo6GsAxmvXhYwbUuX2jwMTyzLto8HWkUw8kQgTmXEQ+s8u/Z5JeuBpJrotVWY+GqbKfSIANBFPd1SAzEsJXAVggFhkq6whYAEDrwP0GnnqteHlRdl8iILOb71OI0AjfXjdT5MxW24NDLagr2XCNT7kkBWqzR43dwJt8Ps31jIbyzK5GMg8gIgPALA/GAcA2FE8YKtsZNAcw1O31lcUp8UcIgC+QNVi3sU0VA0IF0M2DPaE9QD+A+B1ML3GnvvayP9GFtceQ9qXHxNZdSqYH/ThN3Z45E2cHS1qlO4O4NjtvDX0VX9mvXSyH1XgauextXTP3DjLoAMA4wAQH8CMCdBf0riHE+pAp5K3ifA7yll1UtdDBEC3B96yIe5JZHANGMejn+2X6CPaCFjE4LcI1MiEN0xYjTrq7CcyzkMATvHhN706YpV1uB/CRug+NfPZdgarf0PbfRif4YFkzD6jz324mYcx1HjDwz5MvDeY9kZn1cti6eEe4wF4AkR1I942/ybjVQTAdtNVa38qA9UE7CkW6bXTfczAWwxqBHlvEqjRVdZbvTlHXd3EQ9hQjfBnGVQ+BQQM/5b+sc4ka3xvROyURt7Zi6h9GDwebOxD4L0B7A1Zwu8LVgOoN5Q1c9Y4Wi7mEAHQZ1Qym4Oy6hgANbJpUI8wALAUwFIwFnkGNTJ5S70NdlN3vrXGs7lpxPQ7H5qacz3voDkVRW9IrwUh+ecmMNEr8GHpn8Dfro9Ftll/orMseccwwBztgccTjHGdxxJptE/HE/vbbP+fTFQXWWs+KBt1RQBoZ2pT2yiPrMlMdH5hXUAUyO95LkDLiTnDhAwxZzwYLRa5LcqOtHxydKeW2VieVc8CONKHNr1ur7MOkWCTZ1Heuev/FQATfHjds8modcwnu8YrV3JJaXtulMHmKI+9USCKAihnUIzAIyCfDXWnr2YmvtNy1ZyZFSUtYg8RAHlhcnNuouFRFYBzoev2LaFbKwce8xoiigOwtb+XcW19uV0rPZA/EhnnZwB+6sOrHCL+LbNRuslMfqQked9ZQ8yPgGhOfdR6uj8f4RMBEMDZyMCIe7zheZVMdCbkOGGho8jjw+orIvPFFP4zJZvb32P6tx9iT9g6mtcNOwA8xURzNuTMh4J2N4kIAOGLwamRd/ZspxJMZ4NwNGS/QKGyiG1rYn+rIJZvpme5qBXqVTD2EWsUJC4IzxLzX9qL7Ia7R9DHYhIRAKFkUjPvbnvOGQCdxcBXRAwU3CB6HcCTHuFjePwRGcbHcPkjw+SPXeV+7FjFH90VpXViqe5zfpYH26p9Z9Myd1Ie7WwYtBN73k4waGdi7AzC18HYTyxVYEkfmAfwfSD7/mSU3heTiAAoKBJZ3o3YOZ1BlegUA5ZYpd8Et7UArQHxBjA2AGgFsAbEG8HGBgKv8xjruv77RhjGGoPhAbwWABi83jOgwNxuMrd5Lnu5AcVrAcAZjnUNRK4fP6SS2bRXYDAARDa272CYZLhEJSAqNjxYBBoEAEy0IwMEz9vRMDDQ82iAQRjMoMEgbyCYBqDz6FspCAPBNJDAOzEwWERyv0EBmMfMDRHYD9SV0wdiEhEA/YKaNO+ag3M6iE4l4FgAJWIVoY9YS53Hoz4DAwrY0v3mPIg2I0i5MxkPFpMKW6fbOwHaADwN5odcz36gN/U/BBEABUHlSi4Z1KaOYOBkdNYY2EusIghC/vJ0n/I+MT/hGcYjhms+UV+xJREqiAAQMDnbMZ5gnGQAJzPjcOkrQRBCxiICHgHj0fqY9aIc2RMBIGwHVWkeapFzIoOuATBELCIIBTdDLpSE8rbHfJ0H+7E55bRKLCICQOgDKpnN0qz6EMAOYg1BEALKB8motbvM9sOBVLEKCYObnX0l+QuCEHB2TTTnxooZRAAIfYjLvtS3FwRB6B1MR4kRRAAIfQiJABAEIRQCQGKVCAChjxUAHS5GEAQhBMgKgAgAoa+ozrSPhr66AM945O1N4G8T81wAi9C5D1oQhIKamOMdAI8y4QpiHEWElzRNVkYkmnmYWDz4SBnaMAxcto6Cpk21THhmdrSoEUAjgDoAqFnEe+ZM9xAiPoyBQwk4AECp9IQghIZWAAsIeJmJXmLL/HdqFP33MxOLrDMPwGFa3u65RwL4s3SDCACht4LawBGsaU5OLp7//L+rG0fvAHiw6x/UMhvLMrkYyDyAiA8AsD8YB6CzjrsgCPllDQivgfEaQK8xu6+PjEUytUTe1pM0vaBrYtG1Z0kEgAgAofcrAKxrU41SHda/t/WHugJJU9c/d386g2jiIZ7pTjQ8nsiEiWAcCMIe0mOCoC/ZE6GRGQuIaYFruAtml0UWbc+5e8sy/+W4yoWGi5fYYNkHEIbJpZgg2NSkeVeH1Hs6+oqBV1Ix+5C+fOZ5y3mn4nY1HsTjGDSeCBOZMQHyCUEQekIOQDMxL/AMagRokcGqsT5WvLQvX5LIOP8BMEHHvMVwrF1njaePpCtlBUDY3ihguIcR6xFqBuGFvn7m3SPoYwAvdP3TuYLAbKzIdoxksvZhj8eTwfuCaTyAGICI9LLQrxM9IU3MjR7Tm4ZBb4HVW/XRohZfqukRPQ9mHQKA2HIPAfC4dLEIAGG7RxEfrO3hHr3gx2/o+oSwtOufhzb9b9VNPASGGgfwaIBGMzAeoHEAj4ScUhEKZRwDH4OwiJkamXgpQEsZ7qKNZZGmBiI3bw3z8AII39XxaDb4IBEAIgCE3nGQpueyY5ov5vvH1VfQagCrP//vJy3kgZEBTszzjBgRx8AcZaJRAEYD2BPy+UoIFtzlxy0gXgqmLBFlPPYybpudnTuBNgRzgmE+z6R0WeQgcYvAC1MhuCGFKZFV7wPYRcPT08mYXRFGs1Q2cmSQ3bEXYI7+ZOUAwGgQhjDTnp3/ThD6fhbfdZZ+NUBLP53Jk7fU22A3BTXJb4t4Ri0l8CgNj34vGbO/JJ4jKwDCdjA13T7SNSwdyR/M/iz/66BhPOXwv08KX6BmCe/gcm4Yu+YwGN4QD7QXgfYC8xAAw9F5pfLO4mHCJnzUNYNfAaLVDH7bAL8Nz1hNprvSpMjKujG0tiCFDXnPg0mHANg90czDkmW0UtxLBIDQQ1yyD9ZVlM8wvJcK1W5dgXotgLe29GdqVvMAta5jGCxziMe0l+Hx7jAwBB7tBeJTGSgSDywkuAOMh2DQSvLwjmfQewCv9JS7uq20aGXDMGrrx8Z5GUCVFqt77kEARACIABB6nqX5IF1FeZXLr/Zn09YNoY0A0l3/fIZE1jkejMchn8gKJvsTG6fXl1uyIW0zeIRXDF3nDZgPAnC/WFkEgNDjsYODNGWgjaPfiSwSC2+eZNT+eyKj/gDwRT69MgfmFwAiIgxmYDCAAQQM4M6TEDuE1JRrCfAY2AhgIwHrmLGOQB6TdxRAfh0BvU2S/5YpWmO/4QxW7QCK+3wOQ7IRUASA0GNqmY3lWbW/jmcT4fXaY3Rt/S0M7FLz/5xWdQwAPzZKRkA0sNWxju7a37BZzs/yYI7ALG5DCYyOYuXCItsYBABwaUeTNlmxYLI9Y4vFl4oN9ko+Ows02gC0bzaIe2gFsfPJ/3YZDJPXAAA73nrLhIJX1N5egjbKwb0rSuu29BumZ7loA6sXfUz+ja0l1o/Fo7dM3YHkxDPOGwT0+ZFjBiaCmXypaSCIACgU3s7myoGu4N73KwvzxcLbCIpDaGN1OncOE72sY2a0GQ4ZZLs3A7hkS39gk8T6cVjtup7dWwmY6NPr2gzDO6eff9/v7qzgVeipObJjfGlHWQrIipGDhxRaCSguzP10PZtBr4iFt019eWQhg3/k1/sYPD2RVRcUqj3jaXUOgb/j3xv5e7PKit4ST+5G/vfwqr5nWxPEwiIAhB6NGt5H27NN9aoYuHukovbtRJ23IvqTs/j3UzMdYwvNjtVN7eVEXOefmMJfk7HIH8WDu5sJXH0xwdMYywQRAAUJQ9egWZMaXdQsBu6uECNuj1jVYF7u0xtLXRj31qzmAYViwkkLeSAb5v0ABvk0eFaajlUjztt9RpRFmgCs0zKEDOwrFhYBIPQsiO2t6cHzZUNOz7h7BH1sEFUB8Ktm+95Oq3NHodjPKnHqAIzz6XUKBp0jt9D1jK77Ol7TEsmYZAVABIDQXaqbeBBAIzQ9/j9i4Z4zK2Y/R4yf+7j0MDmezU0LvS9nc5cBdJ5vsplxTbLM/pd47HbYTlts4NGdMU0QASBse7hYah9oKkJDTG+KhbeP4THrOhD+6ZsEYLp1SsY5Oqz2mtzkHMFMN/r4ymc3xKwbxVO32+He1PZkwxknBhYBIHQHjZtm2PBkV/R2UkvkuZ5VBeADn15pe8C9U7O8V9hslWjmYYaB+wH4dd7/ffKs8/J6tW7o4w60TQ6YZR+ACAChe4OFDF0CwG0ttheLhbefOeW0ipkmQ9clDV/kSy6rhulZDs3dBPEWLoan/gpgd7+GDBNN6bpaWthOIoPsRgCelkSjL6YJIgAKC2JtGwCbpShK70mVW48xMMPHVx66Ae5vQ+O/jnsH4F8JWAZuTkWtR8Qze0fX/RhL9PSRHAUUASB0F13nwOX7f1/NltZZPyLCi74lOeYLqzO5wB9tq07nLgY44eMrX4qss34iHhnwGMG+lNQWRACEm/OzPBi6lk5JBECfzZYOJMeAdQ6A9/2b6dLt8bRzVGCTf9Y5jIlu8fGV77lsVdYdSI54ZB+FCNYUIwh7yEkAEQDCNrDIiWob3J6cAOhLZkbpbY9xLvyrD2ATcG9VmocGzRbxFt6DGffBv01/HgMXzCmnVeKJfRkk9MUIz3DGiIFFAAhb6xDXKNP1bOWpRrFw3zK73H6agev9C9DYw4S6N0ibAuMtXEyOegDAEP/MgNpUzH5KPLCvVZWrL0aQERULiwAQtjpIWNcgUcUbilrEwH3PyKhVy8CTPoqAw1vh1AXGZXPOnwAc6mPyf3p91LpePK/v2aAiS6FpRYs8LhMLiwAQ8iIAaJl8K9VDLZHnGtYkAP4tRzNVVWecH+Z99p92rgSRjzcY8kqLrXPkvL8eGsZTjkEr9IQgkhUAEQDCNgK7nkFCLPdxa2RuGb3HxGcB8E1kMXBDdVadkr/kr04jws98fKXjeXRuXTl9IB6n1bM0xQpZARABIGwLLQKAmOQGQM2kopGXCfDzSJrBzHdVNXX4XmUtnsntR8Rz/Y0h/H+zK+wXxdM0Q6RHADBkBUAEgLAlapbwDgB21fFsD56sAPhAfdS6mQgP+vjKUtOghxJZ3s235N/CexDwEIBS/3I/35uMRW4TD/MjKXh6JgtyFFAEgLBlcq4zSl9PkwgAf2ZPDNeqAuDjiQsaSVAP+HEyoGvH//0ADffRqotzhn2hOJdfWsvQtlpIVm6EWFgEgLBZgWzspW9QuyIA/FoFqKD1ruueAWCtf0EbR7Sy80fNL6GuHf+H+Tcm8LFhuKfcFaV14lk+2dxT2mKFqzHGCSIAQi4APF3nqJ1RbxctFwv7x5yxxRkiqoJ/lwYBoMmJjPN/2mb/GfVjf3f8w/OYLphVViz7V3xkvVvUAk1HAQ0OXhErEQBCIPBAetQx8+raY0iJhX1eCYhaDxPjOp9fe1M8o87r64dWZ9W3fN7xDwBXp8qtx8ST/KVhPOUAvKMnyNEwsbAIAGGzKwB6BAAZ9LZYN08iIGZdC+B+P92IwLMSzc7hfTbzTztHMfMcX+MF46GkFPvJJ1piBhskKwAiAIQtDA8tAoDBIgDypuqIybPiABb5+NZieHi4anF7rPfJv6Oi61SDn6WH07ZlTQYRiwMVlgAgj2UPgAgAYQtoGhyyApDXVYAKWk+ev5sCAeximtbjk5p5u2+WrEnzrkTmIwB29rHd60HeGXVjaK14Th6nIrpWAAgiAEQACP4KAJYb0/IuAorTIJoMXzcF8mjLU4/WrOYBPf2blSu5xCH1iM/V25hAiWS0aJF4TH4hTWWtCZBPACIAhM/TVSBjkJ5BZ4gACADJqPUQgF/4/NqDnFY1u5a522O9ktks3aj+DB8v+OnK/tfWx6y/iqcEYAWA9awaMrDTpIU8UCwsAkD4TE90aKzkxivFwIERAVeD+C8+v/as5c3qpu7+4dKsugWEU31NOMBfU2XWdeIhQUkM+vYNRWw91U4FEQDhxTO0fWclx1otBg4IRKw22lMAvO7vlA4/iGdy07f1x6rTzg8AXOKvTTB/Q4k1STb9BSgxsNK3amg7O4uFRQAIm8Znk3bR9ex1g/CeWDg4zJ1AG8izToKf1wcDINCM6rSq2tJ/j2fUeUy4yVe/B94xYZ3eMIzaxDMCNB9BsbYbF5n1xTpBBEBIFQDpUsXtElyDR30FrfYMPhXARj81ABPPjDc73/jCzD/jfI3ASZ9jQpvJfNrMqJxSCaB/rgeQ0+OFJCsAIgCEzwoAT5cq/lCMG0xml0UWMFEcvp4MgE0e/rppoaBEJncIAw8CiPg7+acps8ojr4gnBDUm4SNNsU4EgAgA4bM9oUkVk6ZBLPQJqajVAMDvincD4OGheLqjIpHtGAfQYwD83ZlNqE3GrD+LBwQYTbGDIZ8ARAAInx8VO2t6rqwABJxk1LoqDycDdjXI/Cc84yn4W+gHAO5Lllk/k54PPHomD4SdxLQiAIRNxwTzzqEaxEIfdj5xa7GdAPCqv5qT9wRhiM+/9jW7VMr89msBwLIHQASA8LlgTIO1PJfpY7Fu8GkYRm0mWWdAUwnWYDg5L7eVdVLdENooPR6KmKRp8sA7iHVFAAifmQWiWMtjDV4jxg0HM6P0tut5JwJYV4A/b41n8Il14+gd6enQSABdsaNYbCsCQPBjUDDkCGCImFNR9AYZOA26jmDlB4eAytnRokbp4VAtAbTrmev4erOkIAKgHwsAoENMGy7qy+x5THxRwaQRpgvrY/Y/pGdDlxz0xA6SFQARAIJfAqBdTBs+UtFIPfy/OEjHbO+aZLk1W3o0fHiGptVDFgEgAkD4PHqWxZhFAISUruOBc0Kc/pP1MVuO+4UVTbGDZQ+ACADhC8NCVgCEz+VPYnutPZWAp0PY+mdaHfM70okhdj9tsYNEAIgAED6b/zUNCsMQARBi6g4kp4OsM0B4M0TNbmTbOr1hPOWkB8Mck3TFDhYBIAJA+JzctrUMNdkEGHruitI6VuoUACG41plXmmR9IzWK1kjPhR5dk4eImFYEgPBZPE0dTGLa8JMaW7LMI+/rCHZlxw9N8PFyu1/BTEr05AeGK8YVASD4MCg8hiXGLQxmR4samfhEABsC2LyNnodTZ8aKFktPFUhIIk2xg6DEuiIABD8GBcEU4xbQSkA08jJA5wCBCqIOMZ01u8J+UXqogJIDe3piB7OsAIgAEPwYFNoGsZA3kjHrURAlAAThQp3OQj/l1uPSM4UWknStABiyAiACQPBjULB8AihMERC17iTg8vz7Lf9ACv0UakzSs3pIJCsAIgAEfwaFfAIoWOpj9q8AvJTHJryUjEZ+Iz1RoDFJ0+SBWfYAiAAQfBkULEduCtVhKJ5xbgJwWB5bcVh11vmFdEbBZgctR5NBcgpABIDweTr0jDUaLKYtLGqZjUTW/T0BPwyAcL0ynlW31zJLLCk0jakvdkhtEhEAwudYq+m5O4ppC4dKZnN51qkH+NtBaRMxX7w868ytncey36SQBABjJ03KYo1YVwSAsGkQJU2DgkgEQIEwPctFpVl1L0CTA+jB5y0fqu6Pt0iZ1wKKSrpihwgAEQDCZ9U2fazpwSIACoBJC3lgK6tHAJwR4GaeTDn1WHUTD5IeK4DkQJpiB0mZaBEAwucTtZZBQdC0jCf4RryFd7SK1ZMAjgv+pBHHsKGentLIO0vPhT0kafp8qCnWCSIAwjvYDNkDIHyRmkW8Jxz1LAiHh6jZB3m2+sfUpfwl6cFQs4OmSck6Ma0IAMEHVczAHmLccDKlub3MsdznCNg3hM3fXyn3peqm9nLpyZCGJE2xg5k/FuuKABA2VcVsrNH06D1r5rMtFg4XiWbncM8zXwa4LF/Rv/czPR7FhvlCIpM7RHo0XEzPchEBWlZw2DDWioVFAAibDgqT39XVx15p+15i4RAl/6w6FR6eArBL/hRpnz1pV4CeSWTVWdKz4WEdOvbSlh+Y/ysWFgEgfGYFwFuh69muaQ0XC4eD6mxuCpjvAzCggH5WMZjvqc7kviM9HJLE4JojdD3bc93lYmERAMImlOQi2gQAg0QABB1mqk47tcw0E8jTBU567xY0GfT76oxzA5hJOjzgExKDdcUMbistWikWFgEgbMId46kVwId6VhdYBECAqWzkSKLZSTHhmvxGfV80xuWJrDtT9qUEXgIM0/TgDxqGUZvYVwSA8EW0KGMGlYlpg8mURt651FZ/B1NVHpcftE//P/e+arWDmpfI8m7iAcGEmWOaRKYs/4sAELbACj1jjvcV0waP+JL2qGerfwH4Sn6Tv0/T/88kGBwBdl+amukYK54QQAFAtK8md1sh1hUBIGw2U5OuwTFellwDlvwzznHkmq8AyNs5eQK1MBvL/E7+m2SDMS6Mf0/JqBPFI4JDzXy2CajQJDdFAIgAEDYfkL0lmh5d1LFDLiYWDkjyz+amEfAY8lulsRGeeaRlmEcBaMpjOwZ54AcT2dxF4hnBwN0xVw4gokn0LRULiwAQNjfwPHpTW0ezKZ8B8kwls1mdcW4gpt8hXzv9ARCwwGbrK/UVtHpmlN42HOsIBl7Jo2ksMN2RyKg/ykpV/mE2J2jzPaI3xMIiAITNdYZhaRscBJ4gFs4fNWnetTSrnmDg8rwGd+C5DrKOrSunDz75d7PG00ewreOJ8GKeU0+NM1j9rSbNu4rH5FMA6Nsz5CrrLbGwCABhMySj9D4D72gK/EeIhfPDlGxu/xy5rwD4Wl4bQnh8Q4n1jbui9IXLWFKjaI010Po6gL/n2VzHOaRel/LBeeUoTc99e85Y+lDMKwJA2FKHMBZqevTBkxbyQLGwv1SnVZXH9CKBR+V3WoeHSmGdvrUz2HVDaGOrY50C4L48m20vgJ5NpHNTxYP8ZVojlwI4UNPjZflfBICw1ThN2gZJxC5Rh4mF/WF6losSGWcGE88GUJJfp+I7R6y2zvptlDq29UcbxlOuNWqdA1B9nk1YBKI/VadzcypXcol4lD+0RdQRAGw9bigCQASAsFV0bpLhvJ437z9ULeHhrayeB3BJAJozIxmzq2qPIdXdv9BA5Caj5lQQ3Z5/QUyTStvUvKlZlgut/LC3pzFGkL5NzoIswUXrAAAOxklEQVQIgMLoEHZf0zf+RADopjqtTjBdtQDAQfmO5WBcmYzZl4GIt8NZOBm1phNwNfwtE7g5DnFZLajOOl8XD9M9AdEYIzTGNmE7+1tMEDQJzpTIqneg5y5uz1bWXnXj6B0xdN9SO4+tFUPUT5lwVQCEtQLzRcnyyMw+EjVVTDwTmpaGeyRqgN+2OtYPG8ZTTryub4m38B7kqFWa/Pe9ZNTaY7vEqCArAP1IgjOYn9XV347tnCZG7lumLOIRy4eq57ou88n3mGolplP6KvkDQH25NYeAbwJYF4AJyyWlEfXilOZ2ud+ir3GcSl3+S+B/SvIXASB0Z5pj4FltD/eoUizcdySy6izPUv8BkP8Nloz/egZ/pb7ceryvH10fs/9BHn8VwLsB+J0Hep65IJ5R54kH9mWS1hcbGHhGLCwCQOieWn5G48O/XLOI9xQr947KlVySyDgzwNyA/Jb0/aRjl7DlHj27LLJA1xvqKyLzTU8dBiAdgC4YTOC7qtO5OXK8tffEW3gPAIdr807PEwEgAkDoDsmyyGIw/qurzx3LkVWA3sz6m53DS9vUQgRjlz8AvGyzeWhqTHFW94tmVpS0gKyj8lw6+H8zS6JJVolaIIWDehkUlHMOAFPT7P+d+oritFhZBIDQLblMDIOf1fiCaWCWDaA9nyUVJzLOjfDwHIBoQJr1gF1qfXXT0r7aBWqU3nfbrGMBPBwQG5QD9GIi61w/PctF4qk9o5bZYKZp2qKNzhVNQQRAQWoAz3hMZ8CszrjfECt3n6qmjn3JUS8B+JGumdJ2cNuIqHVW3RDa6PeL506gDcmodRoxrg2ILUwwftzKasHk5txE8djuszzrflOnoGUYj4qVRQAIPaDDMB8E0K7vDXyJWLkbs6N5bMWzzuWmYbwKYL+ANCtH4EQyZl9aS+TlT6US15fbtUw8BUBQjuWNNzx6uTrj3FDZyBHx4G7Fgks1PrzdIVMEQFAnmmKC4JLIOA8DOFmbMCdv72S0aJFYevPE07mDiKguQIkfAD4gxun15fYLQbLVlIxztAfcD2CXADXrNc/gGp0bI8POlOaOvT3PeENbLmA8lCy3TxNLywqA0NOxQ9SgVfx5xvVi5S9Ss4R3SGScGUT0UsCSf9Z13SOClvwBYFbMfo7gHgwgSILyAMOjVxIZ9cfzszxYPPuLeJ7xS50TQSa6V6wsAkDYns5xNX8GIJyaaHKOFUtvMuvPqpMd13kTnTv8g/KtHww8ybZ18JyxxZmg2q4+VryUPOtQAEFa8jUArrFZNVWnVZV4+P9IZJ0vAzhJ4ytk+V8EgLDdAbWC1gN4UmtiMfBLOREAVGfaR1ennceJ+WGAhgWpbQzcOnKVdWJqFK0Jg8+OWGWdDmBGkNpFwJ5MPDuRdR6rzrSP7vfBhZnA+JVWmxOeuCtK6yAEFtkDEHSVnlZng/gevQOVp9ZHI7P6o32nNXJpm62uAPB95Pva3i+yAaALkzHrz6EUVVl1PjPXARgQsKa1MXDzAMe66Y7x1No/40puKoj+pFVjEH0rFbUaIIgAELaP2nlsLR+qWgDovA51A5vu/n4UkgmMXZmNFRn3AgbfCMIeARyazey6Z6TGFoX6CtV4uqOCyHgAQEUAm/cBg3++IWrf3kDk9hffr860j2aY/wEwSONrVtnrrFF1B5IjUTy4yCeAoCeqznvc/6D5NQNJmalKZrM/2LQ643xteVa9xsSzg5j8GfhbR5F5cNiTPwCkyouacmQdAuCBADZvVwLdWppVb07JqBP7y4SCYd6pOfmDCLdL8hcBIPTJaLLqoLUmAADC4YMy6qpCNuPk5tzERMZ5goGnAEwIYBM9AFelotbJd4+gjwvF7ndFad2IqHUWE2q7fmPQGOuBH01knL/FM7n9CnkMLB+qroH+i6vaLM+aCSH4qUVMEA4SGVUPcEL35JOJzi6073bVTbkD2aBrAJwYYJ//iA2cnyqznyhkP46n1TcN4jsZ2CmgTWQwHobB1yWjkdcKLIacC/Bd2scA0cxk1LpQorYIAKGP6CrY4ceScI6YTtNxpazviT+dmwCinzBwVpB9nYFXDLjn1seKl/YHX65awsMtT93NjCMC3tR/GMw/mVUeeSX0YyHjfI07j2dqvyvB9bwJcyqK3pCoLQJA6FMF7zwJ4DgfXrWRDZwZytkoM1Vn1VeZ8H0wTgh4az0i3DD8beuarr0e/Yaa+WznBqnriPAjBPxTJAN/Iw+3JCvsf4bR1vG0+iYRN8CH0xjEeKK+3D4BgggAoY9XAbK5/T2m+T4FzByYapLl1uww2GbSQh5olTgXADQdwPjA6xTgHWZMml1uP92ffTqecY4jxpxgnsT4Am8x822RQfZd+biAafsmDbkEQH8EYPsiaJkPqC+PLJRoLQJA0DGgs7nZYPKzotltpWT96LdR6giiPaoz7aM9mN8xgKkB/q78+VH3uCIrPreM3hOPBqYu5S8ppeYQ8PWQNPkjADPZVb9PjS1ZFkhh1cLFpNxfgfm7/olaSqViVkI8WgSAoEsANPMweCoNH4vWMPCGyXxhUL6FnrecdyrucCoZdAGAI0PkxzliXFkfs24BEYs3b+pkTIms+iGAn/s0W+2bVgPPg/lOROyGoFRqnJLOHewZNBOMfXx8bZtJVmxmlN4WZxYBIOhU92nnl0S4wufXesyUJNO8NllGK/3+zZMW8kC72P06E1+Azt38RSHrtkXk8eT6ish88eBtJC+i2Qhm4aCt0cHAowbTXdYg8+/5+ERQtYSHm657DcBx+LyvggjX10ftn4gHiwAQNFOzhHdwXNUMYNd8zGIBugvk3a77mFQ83VFBBp0AphMAHB3CpA8ALgO3wLauTo2idvHebVO5kksGtaufM+MyhLNWSTsDzxHxE+R6j9VXFKd1vmxyc24iecZ3CXwegEgefu/7ObLKpO6/CADBJ7rO9N6dZ+95kzzcz8SPl5L9n97sE+ic4av9YfCBHuNAAo4AaGTIuykLA/Fkmf0v8dieU512jmSiFMBjwvw7GNRC7L3IhPns0fyiwdbrvVkhmJ7lovVw9iePTgDhTOR50ysznZsqt+4RjxUBIPgqAnJ3A3RuQJrjEPAGg+YDvJTA7xGM98He+8qEa7kwmWgwAHig3UE8jEB7gXkEgNHoXPItlFLEHoDb7VLrx2HZLR5UJi3kgeYA90ZinlZA8UoBaALQAqLlYF4J0EoCvw8AxLzukzEDMnZjeLsxaHeAxgB8IIB9EJB9Egy+KxWLXCCeKgJA8JnOTwHOGwANF2sEZr63jAyqri+z54kt+nw1IAlwmVgjMLzdUWTtW0hlq/sbchdAiKkbQ2uZ6QIEs756f0MBuI08e19J/n1Pfbn9gl1qTiDGtQDkkpn845GBKkn+sgIg5Ht2lHV+zYzviyXyNogWwOPvyA5/v1YDchOY6A8ADhVr5AcGfpWK2T8SS8gKgJBnBsK6EsBLYgnfE//HAH9neNQ6WJK/n6sBkYUjotYRTHwxgDViEZ/9nvDiILKuEkvICoAQEGrSvKtD7r8BHi3W8GXgNBiWNX3maHpXrJE/4i28h5FzbmKiSWINP6b+vFyZ9sFSxVIEgBAwqpo69jUN4zkAO4g1NMU/4A3y8L2wXgxTsEIg4xxHwC0A9hZraGONYXhHzSorektMIQJACCDVWecwZjwJoFSs0ad8wOCfb4jatzcQuWKO4FHLbKzIuBcw+MaQXC4UJjYy4xupcvt5MYUIACHAJLLO8WA8hHBWzgtc4APjZtVu3TR3Am0QcwSfaY1c2marKwB8Hz7emVHAdDBwcipmPyWmEAEghGEloNk5hj08BGCQWGO7YALuI2X9cNY4Wi7mCB9VaR5qkns1wFNQOEWm/GYDEc6oj9pPiilEAAhhEgFZ5zAw/haaa3IDkvgBPEjM18q95oXBlGxuf8+ja0A4RWJej/iIiU9MRSMviylEAAghJL6kPUqu+TDCd7taPhL/3zyDa2eXRRaIOQpwLCzu2Mcw6IdMdD7kCPS2UkOzCfeUmbGixWILEQBCiDlvOe9U1KH+AuA4scYX8Aj4q+d6P0uNLXpTzNEPVgSaO/Zml37EROdBPg1sTgk/mSuyzpEqfyIAhAKhktkclFVXMnA1AEssAgfg+wyDr5djTf14RcCkKxn0/+3dT0hUURTH8e9587QshYiKCC2kP1RCERq2iaColKCoaFFIZEnRokW4iGrVyk20NJIQQYkgqBZBReWmRZBCbhLJoj9WIEYUmmLz3vu1mBYVBmWYOnM+m1kNM3fuPXfOe/ede/cyRQ7XmWQRcG5oedjglS6eALgslCkTtLYc3jBoAGiyJGxsXmnvfUS4ul4VJ0THJY4C83L0r+CFLKnx9X5PAFy23w3oU0HRcHRKxmkgP0ea3WXo4mBBXuu1EhvxUeB+daJXMwaJd5pUD1Tm0FV/Y0E6PNtYZkM+CjwBcDniYM/omjAILgi2ZGkTh4VuILvkG5i4v1Hbm96EdAxsFzArSyf/B0mcnPRnXzwBcDns0LP01gAaBOVZ0JwYaDdZ28wodd2vaty/ONyjIlm8B1MNsJnsqB7oMDjTvCLvvvewJwDOgWS1z6NtiHqmZ7VAl0RroPCqr+27iZDZWCjaD9QAa6ddhMM94Lzv6Oc8AXC/n+gyhwodAQ4wdR+KGgLaDd1O4vhOy6qCV95z7n+p6xkpjVOpKmTV3+8MzJ6iX3UAuBIEyWWvdnGeALg/tu+p8gvz42qU7AbbMcnJQIzRjbibiDvDUfjwWpl99V5yk+1Er2Z8UbRRRhViO7CayV0qGAC7ZcbN8HPqdlOFpb2XnCcAbvzJgJQqfBFVKmZDYFovggrQsgn6OAHPQZ2SdQIds6Lwia/nu+ngcI+KLIjWxaLih1hZOkHz7U+xEgQ8GlwWPvY6fucJgJtQh15qDulofWCUJ1gx0kKDBcB8Mq9zx3hbZDAoSAPvgD7DXoP6ElmfpfRGqbC7pdQ++S/ssilWNBqVBYEtBpVgVoK0BCgBFhnkKXNw11ibdH0E+oEPQL/M+gP0FtGZ5IWdHituvL4BpF3d8pHk8q0AAAAldEVYdGRhdGU6Y3JlYXRlADIwMjQtMDctMThUMDE6MTg6MjYrMDA6MDDAjF5DAAAAJXRFWHRkYXRlOm1vZGlmeQAyMDI0LTA3LTE4VDAxOjE4OjI2KzAwOjAwsdHm/wAAAABJRU5ErkJggg==;container=0;" vertex="1" parent="R-P3G-_Bv4H8eyaSP3HX-12">
          <mxGeometry x="10" y="44.37" width="80" height="71.25" as="geometry" />
        </mxCell>
        <mxCell id="R-P3G-_Bv4H8eyaSP3HX-3" value="Tailwind" style="shape=image;verticalLabelPosition=bottom;labelBackgroundColor=default;verticalAlign=top;aspect=fixed;imageAspect=0;image=data:image/png,iVBORw0KGgoAAAANSUhEUgAAAR8AAACvCAMAAADzNCq+AAAAY1BMVEX///84vfgjufgvu/geuPjp9/73/P/t+f7i9P76/v+r4PzU7/3z+/+l3vvM7P265fxlyfmR1/tCwPiB0vpZxvlzzfrI6/3a8v6d2/u+5/w8v/iy4vxgyPlSxPmn3/t90fqL1frNJVehAAAI+0lEQVR4nO2daZuyOgyGhwaRRQQKFQQZ+P+/8rDpuODIkrSnzHt/9BoZ+tglTZP060s5u/TsRpUIk5Jzo4WXoYgjPzjae9XvphTLPmeCG8AYNBj3tB+w5vP8EgW2pfpFFeCkbmi0whi/08qUh9nxT2lknSv+WZoHkSAs/spgO4um30zW5qYRM8PCUf3u5KT1EnGuErHqqLoBpATlYnGuEuX+QXUrqHA5WyXOIBHUm5yJAhR1eoWizS1nXomlTqcQ81U3CBUrxlSnheVn1Y3C42ysm5XHFbrYqtuFg1Nhd54eYK7qpmFgc4LO08PCnerWrSag6Tw9ALrPQpFJKE8Di1W3cBWCsvd0QKnxGAvJ5WkEMrTdk4VkM/MDuq5j9IPrKpCWk5A0eRqBhOrGzieSJ08zCSW6eT1c4oX9WSCul9PjKLP3dALlOvWgnZyV60EgQyNDKJGvTyOQNhv6WvboGkhVN3waR7lz8w+ghUCWgsE1wJCHGMmBW6VOHwNwBaLYuUhf2ukEKiiOAUqV8jTgCeSZBCtiprT7NACWHbQ3cqQn3T/0nTx9RA/rgn20EMjhFH6BeKTxrTClqP3gfDoFRVYLzpZHKUgTqAR2wnjOA7uX7gMmj4OXcZwW1dpYhV/0yREECsHI8Y+xn9Z2YHn01mazfSqJIF89sQpmAL5XyX7oPsCSDz3UE1QKrbSkW+ceC9Y9Y4T72QfMxPv8DbuiUYit8tp3vk9AH173sw8rJ76hTXPKYRaLm+F07gfAX73qW1cAY0bnDHKKLsSyha3Y9yfi63rgGNbPu1WzvHkHEl/+QvPFG34tfOOwGFq54FjcJREoWeCUvjViafd7z7DzWuQrTymsaoDZFl519V0xdIe/1yvPqkXfPpD4ZGeOseNtJiQwfvrFffG0+EUSRwX59Gl2fzcNsgm2yUx6eVYYVTRHikxMGylWdjfEIVnejDec2tat29L5JAIBZJ8tPcc37v85wdZUwPrHkixj7Uan/n2/YddPVny5rh0jOAjy0IXjAeP+O4l2RfK8x2H4cXvN8MJ46pnM/QgsF763fziScPanLHn1RRHMPl8VsOU7njtOhP7Z1oXJE1FnflG4flYlfDxFz8QPSXM4i3CeRClQL1Ln6oWXpM6fv7jgtOSe1EQzqKgF+gjJsQXijK9YIEAaCA8kmNEldJP0FHKCU+U9rj1FGnX/AYK1Hf8gX51AsGx7LRt1AmmSm6hoDiLYeBGhZBXDMuJkoKAHUWws6FAgkE5BwjePrTSww/PIsSkye99iajM339jRZa++yoPif5CMJSPHrkPXNLJYTjS1qW1JBiKn9JM8Og6ugSN1xKJOZvMY+wttFwLAPw2UC2nUMJR6JdeNkZLECHWYeng0PoFeI6cHCMIM1YBbY2mAhfqPrRsu9kIGhsbL+gj7GDPaFVisibNwOrYwkRQCFmqRbjiXHUrENDCxSXVa9hlfKRGDWDdXzzy8ClbUKS1dvfyESzgEC+vc8myzA+sJ6xwb5nSN2qiN8s+IM5C6Vck+FtruAlou9XlDtuAMLK+oQ26w56AeuJZp52EUpKqKRzsNVoujtHy1c9gdAzeLRZKUJedlmSRtmf+sONkHFS928E5uVIVJmbf5pWYD5LxMRNy+kYL3+R+RBvXl2ptfR3rbo01e+ce/ONgtr433nFBcv7t4IA40qsmznn0gjDn3DrQDj0fe9qvqtzhBuMhkhaYbaVvBcTJ2vdye74LXN23Qn5K1ToUtb5fPa3fLg0LJJofZGe/egY/lAvQDNzkdWLgt0zHCLm4ALN7Ocu9RnMkBbOW8iao2OhNbWOz3CV2m2vy09P8dR7rzbqNNS9d8FqIO7weu9c7VJ49pA5I0GUlIqf1tahTK/4ik8rtM6DkJSatOrGfclsTizYBcTlYG9FPzPQRlUmiRnXWl2TJmS6/drFX4nyMxHeQmkEYhbkJF6W99Qvtp6hN9RJfMmVRVTrUm15mquNVjEAi7B1HEpSoaXR0mrkAugT6vpa1lgtqDvBDxYVck3Yb3DvMbrSU7CptKeVUihiWQw00C5xsff+vbtQP0Fw9gDbGQEVRB+B7pPm1QYxL5wdFLU+8YfEdhPiX0Z7lAKIZixQhK7zoj4hgj4U0Hz18UdixPoIgZJn4oxNPa3t478N7zcKyAaLJan2Tduob52oe84OSP6iTn312fBxctauGR5dV/e1p5COqrPaSYs8sUp1WR01TbXVUVvztYIBhed4sX4xMPN52MZB5ac9drX0Eaf3j9FNqBOVbInqQ2BiQLNwdWv3+kKxw/P1u1IKkazxd57a8Z4AzdOLz5NeZbaHZJMsYW7A+uJ+KAv/caboWBfMnERnJ1hVnPfAvnlh2PX0nDGe4duCwb9yRhQsBn/Vbej98cf3bue+byhZWmjNqM4/l99fMTEfhqL6325opZ3yPZb0A+7WjMerQzaC5dWic7URk1Fn42VA/Zw/8mWNy/YX2v3NFEmzUbneLX/mDXTwYGww9tbKyq9fvmPVE4HjAm3mWNpv5L2gPB1qsZXhilyQ4khtAgUR4X3oPVZ3mugJGcEIYfUVQwnJqsFplAvUZglGFcR1kWxSGHcTcdxTlauGZDeA+pQL1KV979Ab7t0xiHaM5aS0FwwwMUsTIe4ox/UCsQwc6r2R1gBnCpFQh/496A2yVVCqRFkIM6gQD/SioKlAmkS21rRQLpEmMlww4ageC6STIUCASlTqkKjvRANN3i8CXHEulXvZnEa/8OfQKEf6jlpXGsPbNXQyGrB+kpj5Sq8TrL8/W1k7HO63stQ4Mgn4RMnbJ/XinIQvE69L93wKaoiX6FlVon0ffQpbOyWnXbUCCqVLGFIh4D6FWEGkyxodLxuxCraPwAGHql9X7kiDlPA6s31HkGziXSKAMmNPNmTOSEoRCY27yVoSON1+VuAINoAybPL1hFsuLegUuhkxt1IXZWzk+SaisBZ9vuOnfYbjijUDIAM0SxzTn5LY73LeBjTmJ374D4/iMlpF/YeW4d8mvy5j39Z0nsn/7MoHqPfTwXWR1XImwRVd3eOuDZW6gi+Y9//OM9/wEuQoe2zzDLwQAAAABJRU5ErkJggg==;container=0;" vertex="1" parent="R-P3G-_Bv4H8eyaSP3HX-12">
          <mxGeometry x="100" y="55.610000000000014" width="80" height="48.78" as="geometry" />
        </mxCell>
        <mxCell id="R-P3G-_Bv4H8eyaSP3HX-40" value="Client" style="text;html=1;align=center;verticalAlign=middle;resizable=0;points=[];autosize=1;strokeColor=none;fillColor=none;fontStyle=1;container=0;" vertex="1" parent="R-P3G-_Bv4H8eyaSP3HX-41">
          <mxGeometry x="80" width="50" height="30" as="geometry" />
        </mxCell>
      </root>
    </mxGraphModel>
  </diagram>
</mxfile>
